<svg id="instacart" xmlns="http://www.w3.org/2000/svg" viewBox="0 0 139.91 28"><defs><style>.cls-1,.cls-2{fill:#fff;}.cls-1{fill-rule:evenodd;}</style></defs><g id="Layer_2" data-name="Layer 2"><g id="logosvg.com"><g id="Carrot"><path id="Carrot-2" data-name="Carrot" style="fill:#fff;" class="cls-1" d="M16.77,11.22c1.67,1.67,3,4.38,2.25,6C17,21.58,1.45,29.18.15,27.84S6.45,11,10.76,9c1.59-.76,4.34.58,6,2.24Z"/><path id="Carrot-3" style="fill:#fff" data-name="Carrot" class="cls-1" d="M25,9.41h0a2.65,2.65,0,0,0-2-2.14c-1.88-.21-4.85,3.12-4.63,3.92s4.42,2.17,6,1.05A2.65,2.65,0,0,0,25,9.41ZM19.12.18C20.54.54,22,1.52,22.09,3c.29,2.64-4.34,6.8-5.46,6.48s-3-6.16-1.49-8.37C16,0,17.75-.19,19.12.18Z"/></g><path id="text" class="cls-2" d="M60.81,15.81l-1.37-.22c-1.31-.18-2.1-.61-2.1-1.41s1-1.45,2.46-1.45a5.81,5.81,0,0,1,2.68.8l.15.07a1.09,1.09,0,0,0,.57.14,1.28,1.28,0,0,0,1.16-.68l.11-.22a1.33,1.33,0,0,0,.11-1.05,1.28,1.28,0,0,0-.69-.8,9,9,0,0,0-4.16-1.12c-3.51,0-5.8,1.7-5.8,4.45,0,2.25,1.63,3.66,4.68,4.1L60,18.6c1.48.21,2.21.65,2.21,1.34s-.37,1.48-2.65,1.48a6.77,6.77,0,0,1-3.58-1,1.24,1.24,0,0,0-.69-.21,1.31,1.31,0,0,0-1.12.61l-.07.11A1.3,1.3,0,0,0,54,22a1.39,1.39,0,0,0,.65.83,11.26,11.26,0,0,0,5,1.38c3.66,0,5.94-1.59,5.94-4.45,0-2.21-1.59-3.52-4.75-4Zm42.7,4.92a1.41,1.41,0,0,0-1.05-.47,1.49,1.49,0,0,0-.76.22,4.48,4.48,0,0,1-2.35.72,3.84,3.84,0,0,1-3.81-4.12A3.85,3.85,0,0,1,99.35,13a4.11,4.11,0,0,1,2.31.69,1.43,1.43,0,0,0,1.81-.22l.11-.11a1.43,1.43,0,0,0,.4-1.23,1.5,1.5,0,0,0-.65-1.09,7,7,0,0,0-3.88-1.08,6.9,6.9,0,0,0-7.2,7.2,6.9,6.9,0,0,0,7.2,7.21,7,7,0,0,0,3.92-1.12,1.55,1.55,0,0,0,.65-1.09,1.46,1.46,0,0,0-.4-1.23l-.11-.15ZM35,5a2,2,0,0,0-2,2,1.91,1.91,0,0,0,2,2A2,2,0,1,0,35,5Zm.58,5H34.38a1,1,0,0,0-1,1V22.91a1,1,0,0,0,1,1h1.16a1,1,0,0,0,1-1V11a1,1,0,0,0-1-1ZM73.63,21.17a2.82,2.82,0,0,1-2.82-2.83V13h2.82a1,1,0,0,0,1-1V11a1,1,0,0,0-1-1H70.81V6.94a1,1,0,0,0-1-1H68.56a1,1,0,0,0-1,1V18.16a6,6,0,0,0,5.87,6.09h0a1.41,1.41,0,0,0,.9-.37,1.21,1.21,0,0,0,.36-.9v-.8a1,1,0,0,0-1.05-1ZM45.53,9.91A6.23,6.23,0,0,0,39.12,16v6.91a1,1,0,0,0,1,1H41.3a1,1,0,0,0,1-1V16.57c0-2.14,1.3-3.55,3.19-3.55s3.18,1.41,3.18,3.55v6.37a1,1,0,0,0,1,1h1.16a1,1,0,0,0,1-1V16a6.13,6.13,0,0,0-6.34-6.08Zm84.71.1a14.06,14.06,0,0,0-2.14-.14H128a6.18,6.18,0,0,0-6.12,6.19h0v6.81a1,1,0,0,0,1,1H124a1,1,0,0,0,1-1v-6.7A3.06,3.06,0,0,1,128.14,13a4,4,0,0,1,1,.11l.26,0A1.38,1.38,0,0,0,130.74,12c.08-.37.15-.62.22-.84a.84.84,0,0,0-.11-.72,1.09,1.09,0,0,0-.61-.44Zm8.62,3a1,1,0,0,0,1-1v-.95a1,1,0,0,0-1-1H136V7a1,1,0,0,0-1-1h-1.23a1,1,0,0,0-1,1V18.16a6,6,0,0,0,5.87,6.09h0a1.41,1.41,0,0,0,.9-.37,1.22,1.22,0,0,0,.37-.9v-.8a1,1,0,0,0-1-1A2.83,2.83,0,0,1,136,18.34V13h2.83Zm-22.42-2h0a7,7,0,0,0-3.91-1.08h-.15A7.1,7.1,0,0,0,108.51,11h0a7,7,0,0,0-3.15,6.09,6.88,6.88,0,0,0,3.44,6.26,6.78,6.78,0,0,0,3.44.94,5.35,5.35,0,0,0,4.16-1.88v.51a1,1,0,0,0,1,1h1.16a1,1,0,0,0,1-1v-5.8A7,7,0,0,0,116.44,11Zm-2.68,10a6.33,6.33,0,0,1-1.12.22h-.29a2.92,2.92,0,0,1-1.13-.22,4,4,0,0,1-2.53-3.94,3.9,3.9,0,0,1,3.4-4.13H113a3.91,3.91,0,0,1,3.41,4.13A4.15,4.15,0,0,1,113.76,21ZM87.14,11h0a7,7,0,0,0-3.91-1.08h-.14A7.14,7.14,0,0,0,79.21,11h0a7,7,0,0,0-3.15,6.09,6.88,6.88,0,0,0,3.44,6.26,6.78,6.78,0,0,0,3.44.94,5.39,5.39,0,0,0,4.17-1.88v.51a1,1,0,0,0,1,1h1.16a1,1,0,0,0,1-1v-5.8A7,7,0,0,0,87.14,11ZM84.46,21a6.33,6.33,0,0,1-1.12.22h-.29A2.83,2.83,0,0,1,81.93,21a4,4,0,0,1-2.54-3.94A3.9,3.9,0,0,1,82.8,13h.87a3.9,3.9,0,0,1,3.4,4.13A4.14,4.14,0,0,1,84.46,21Z"/></g></g></svg>