<svg height="45.219" viewBox="0 0 179.329 45.219" width="179.329" xmlns="http://www.w3.org/2000/svg"><path d="m-649.29-737.518c.222-.236.447-.47.667-.708a55.762 55.762 0 0 1 6-5.754 27.658 27.658 0 0 1 2.833-1.95 4.63 4.63 0 0 1 1.564-.572 1.492 1.492 0 0 1 1.867 1.517 8.1 8.1 0 0 1 -.3 2.234c-.432 1.536-.96 3.044-1.446 4.564a1.746 1.746 0 0 0 -.107.8c.316-.305.644-.6.946-.918 2.817-2.967 5.586-5.982 8.462-8.89 1.532-1.55 3.224-2.947 4.894-4.353a13.7 13.7 0 0 1 2.194-1.394 4.34 4.34 0 0 1 1.265-.425 1.322 1.322 0 0 1 1.4.73 1.052 1.052 0 0 1 -.17 1.387 14.345 14.345 0 0 0 -2.871 5.186c-1.21 3.344-2.329 6.721-3.482 10.086a2.783 2.783 0 0 0 -.056.444c.347-.09.638-.14.911-.24 1.209-.442 2.418-.884 3.616-1.355a1.638 1.638 0 0 1 1.994.364 3.311 3.311 0 0 0 .314.256c.663-.328 1.328-.676 2.009-.991a1.513 1.513 0 0 1 2.193 1.529c-.016.218-.059.433-.1.757.267-.134.46-.213.635-.32.954-.588 1.9-1.19 2.855-1.774a1.536 1.536 0 0 1 2.488 1.314 9.634 9.634 0 0 1 -.147 1.452c.339.047.564-.19.816-.319 1.969-1.009 3.909-2.077 5.907-3.023a18.3 18.3 0 0 1 3.177-1.069 1.294 1.294 0 0 0 .913-.749 59.294 59.294 0 0 1 4.4-7.254 12.353 12.353 0 0 1 3.038-3.228 11.589 11.589 0 0 1 2.429-1.3c1.564-.575 2.44.115 2.416 1.785a6.074 6.074 0 0 1 -.755 2.644 15.531 15.531 0 0 1 -2.317 3.185 56.589 56.589 0 0 1 -6.283 5.944 11.122 11.122 0 0 0 -1.491 1.58 6.578 6.578 0 0 0 -.6 1.267 4.154 4.154 0 0 0 .724-.231c.982-.594 1.973-1.176 2.926-1.814 1.63-1.09 3.215-2.25 4.86-3.315a19.414 19.414 0 0 1 2.6-1.353 1.322 1.322 0 0 1 1.579.094 1.4 1.4 0 0 1 .155 1.579c-.226.661-.523 1.3-.789 1.945a3.434 3.434 0 0 0 -.321 1.195 2.8 2.8 0 0 0 .56-.371c.552-.595 1.1-1.2 1.612-1.825.708-.869 1.371-1.773 2.077-2.644a3.542 3.542 0 0 1 .8-.734 1.308 1.308 0 0 1 1.62.218 1.122 1.122 0 0 1 .229 1.456c-.343.641-.761 1.242-1.121 1.875-.273.48-.5.982-.8 1.569a1.415 1.415 0 0 0 1.015-.343c1.3-.833 2.576-1.691 3.87-2.529 1.246-.807 2.492-1.616 3.76-2.388a5.861 5.861 0 0 1 1.451-.646c.846-.236 1.389.282 1.22 1.149a5.782 5.782 0 0 1 -.47 1.343c-.4.835-.852 1.641-1.25 2.475-.238.5-.415 1.025-.614 1.528a2.546 2.546 0 0 0 1.629.532 11.287 11.287 0 0 1 1.153.2.894.894 0 0 1 .68.864.8.8 0 0 1 -.62.8 7.606 7.606 0 0 1 -4.459.332 1.663 1.663 0 0 1 -1.245-2.391 17.541 17.541 0 0 1 1.046-2.008 3.714 3.714 0 0 0 .449-.945 5.668 5.668 0 0 0 -.545.268c-1.639 1.026-3.266 2.07-4.913 3.082-.739.454-1.51.857-2.278 1.262a6.125 6.125 0 0 1 -1.008.416c-1.1.347-1.688.034-2.052-1.124-.236.179-.453.341-.667.506-1.289 1-1.9.949-3.051-.3l-.5.385c-.488.375-.95.792-1.469 1.117-1.532.958-2.569.8-3.805-.581-.2.087-.428.178-.648.281-.785.37-1.564.753-2.355 1.11a5.759 5.759 0 0 1 -.954.32 1.825 1.825 0 0 1 -2.334-.967c-.083-.139-.174-.274-.289-.455-.489.352-.932.687-1.393 1a14.207 14.207 0 0 1 -1.421.892 3.8 3.8 0 0 1 -4.2-.23c-.135-.1-.285-.172-.424-.254-.617.246-1.214.486-1.813.721-.1.041-.214.065-.322.1-1.737.493-2.565-.156-2.514-1.967a2.927 2.927 0 0 0 -.047-.353c-.3.191-.555.339-.793.512a28.136 28.136 0 0 0 -3.948 3.643c-.038.041-.071.087-.108.129-.591.678-1.009.83-1.588.578a1.453 1.453 0 0 1 -.852-1.663c.133-.769.379-1.52.581-2.277.076-.286.166-.568.283-.962a2.5 2.5 0 0 0 -1.534.667c-.666.636-1.3 1.31-1.9 2a6.075 6.075 0 0 1 -2.762 1.838 1.849 1.849 0 0 1 -2.387-.848c-.073-.106-.148-.211-.279-.4a13.587 13.587 0 0 0 -1.314 4.3c-.039 1.089-.206 2.174-.338 3.258a3.3 3.3 0 0 1 -.236.888 1.029 1.029 0 0 1 -1 .648.927.927 0 0 1 -.95-.571 5.507 5.507 0 0 1 -.375-1.532 10.552 10.552 0 0 1 .431-3.57c1.878-6.517 3.965-12.964 6.392-19.3.039-.1.062-.208.131-.446a2.584 2.584 0 0 0 -.4.236 147.295 147.295 0 0 0 -13.761 14.405c-1.122 1.4-2.163 2.86-3.242 4.292a5.783 5.783 0 0 1 -.407.533 1.114 1.114 0 0 1 -1.375.273 1.1 1.1 0 0 1 -.672-1.23 4.191 4.191 0 0 1 .346-1.026 77.075 77.075 0 0 0 3.962-10.887c.124-.448.2-.908.349-1.561-.42.249-.664.372-.885.528a29.518 29.518 0 0 0 -8.349 8.876 10.017 10.017 0 0 0 -1.494 3.717 1.158 1.158 0 0 1 -1.33 1.108 1.266 1.266 0 0 1 -1.31-1.35 23.868 23.868 0 0 1 .235-2.592c.592-4.9.939-9.817 1.1-14.748.062-1.877.152-3.753.151-5.63a24.951 24.951 0 0 0 -.263-3.093 5.626 5.626 0 0 0 -.39-1.369 3.382 3.382 0 0 0 -3.131-2.295 11.185 11.185 0 0 0 -2.837.193c-1.2.254-2.358.694-3.531 1.065a2.592 2.592 0 0 0 -.457.263l.49.628a4.74 4.74 0 0 1 .081 6.126 14.841 14.841 0 0 1 -4.646 4.079 31.692 31.692 0 0 1 -3.928 1.9 152.509 152.509 0 0 1 -16.018 5.045 96.358 96.358 0 0 0 -10.44 3.183 28.933 28.933 0 0 0 -6.83 3.753 17.326 17.326 0 0 0 -2.165 1.977 5.534 5.534 0 0 0 -.923 1.491c-.491 1.077-.179 1.6.984 1.7a6.946 6.946 0 0 0 3.692-.578c.605-.29 1.2-.613 1.772-.958.721-.432 1.4-.936 2.133-1.343a5.391 5.391 0 0 1 1.55-.607 1.289 1.289 0 0 1 1.687 1.172 1.53 1.53 0 0 0 .081.312.781.781 0 0 0 .946-.144 10.6 10.6 0 0 0 1.261-1.107c1.788-1.971 3.55-3.967 5.327-5.949.449-.5.914-.986 1.382-1.469a4.021 4.021 0 0 1 .57-.5 1.107 1.107 0 0 1 1.26-.124.954.954 0 0 1 .443 1.094 6.564 6.564 0 0 1 -.5 1.679 30.6 30.6 0 0 1 -1.656 2.821c-.583.89-1.245 1.727-1.865 2.593a1.968 1.968 0 0 0 -.342.736 7.089 7.089 0 0 0 2.191-1.86 5.572 5.572 0 0 1 .472-.588 1.123 1.123 0 0 1 1.389-.208 1.074 1.074 0 0 1 .633 1.244c-.039.275-.145.54-.2.814-.047.237-.066.48-.1.743a3.035 3.035 0 0 0 2.529-2.3 3.7 3.7 0 0 1 2.664-2.775 1.52 1.52 0 0 1 1.994 1.735 3.231 3.231 0 0 1 -.307.95 9.665 9.665 0 0 1 -.628.973 5.448 5.448 0 0 0 .732-.209c.533-.249 1.056-.518 1.581-.783.7-.354 1.379-.518 1.946.3l3.1-2.332-.058-.162h-.532c-1.036 0-2.073.008-3.109 0a2.261 2.261 0 0 1 -.661-.1 1.023 1.023 0 0 1 -.733-1.095 1.007 1.007 0 0 1 .837-1.013 5.174 5.174 0 0 1 .837-.039c1.82-.056 3.641-.086 5.46-.175a4.306 4.306 0 0 0 2.848-1.275 33.011 33.011 0 0 1 2.534-2.2 3.46 3.46 0 0 1 1.348-.627c.7-.154 1.133.368.939 1.063a4.127 4.127 0 0 1 -.462.982c-.328.548-.689 1.075-1.1 1.71a4.85 4.85 0 0 0 .782.079c1.423-.1 2.845-.224 4.267-.343.195-.016.387-.069.582-.084a1.063 1.063 0 0 1 1.266.832 1.081 1.081 0 0 1 -.842 1.343 12.572 12.572 0 0 1 -2.232.382c-1.536.107-3.077.135-4.616.205-2.125.1-1.793.147-2.2 1.977a2.209 2.209 0 0 0 -.028.5c.014 1.115.453 1.488 1.528 1.262.519-.109 1.026-.276 1.537-.42.242-.068.478-.163.723-.217a.71.71 0 0 1 .806.312.723.723 0 0 1 -.049.867 2.823 2.823 0 0 1 -.588.592 6.527 6.527 0 0 1 -4.351 1.251 2.108 2.108 0 0 1 -2.042-1.7 8.856 8.856 0 0 1 -.118-1.746 6.3 6.3 0 0 1 .1-.875c-.4.023-.561.3-.777.484-1.654 1.385-3.285 2.8-4.958 4.159a20.8 20.8 0 0 1 -2.155 1.462 3.569 3.569 0 0 1 -1.077.451 1.167 1.167 0 0 1 -1.43-1.6 8.327 8.327 0 0 1 .409-.884 2.528 2.528 0 0 0 -.516 0 3.421 3.421 0 0 1 -1.986-.132 1.07 1.07 0 0 0 -.945.1 23.537 23.537 0 0 1 -2.442 1.117c-1.266.468-1.8.278-2.668-.851-.291.18-.586.379-.895.551a20.183 20.183 0 0 1 -1.849.989 1.684 1.684 0 0 1 -2.5-.9 2.03 2.03 0 0 0 -.215-.326c-.319.112-.634.21-.94.332a18.771 18.771 0 0 0 -4.424 2.56c-.267.2-.528.417-.8.609-1.531 1.062-2.779.781-3.744-.913-.45.077-.934.172-1.422.239-1.026.14-2.052.287-3.083.385a5.169 5.169 0 0 1 -1.338-.065 2.88 2.88 0 0 1 -2.351-4.064 10.693 10.693 0 0 1 4.117-5.189 55.44 55.44 0 0 1 4.94-2.861 50.166 50.166 0 0 1 11.25-3.884 157.9 157.9 0 0 0 17.5-5.374 20.822 20.822 0 0 0 6.391-3.649 10.973 10.973 0 0 0 1.653-1.773 2.13 2.13 0 0 0 -.042-2.73c-.4-.528-.885-.99-1.383-1.539-1.279.762-2.5 1.436-3.67 2.2-2.7 1.76-5.366 3.568-8.057 5.341a3.423 3.423 0 0 1 -1.062.469.964.964 0 0 1 -1.129-.344.913.913 0 0 1 .177-1.161 11.81 11.81 0 0 1 1.743-1.69c2.006-1.43 4.051-2.807 6.105-4.167.839-.556 1.744-1.013 2.617-1.517.237-.137.469-.285.827-.5-.525-.226-.921-.421-1.333-.571a27.1 27.1 0 0 0 -6.912-1.325 65.1 65.1 0 0 0 -15.074.8c-4.659.667-9.3 1.45-13.873 2.567a102.229 102.229 0 0 0 -21.042 7.4 35.8 35.8 0 0 0 -8.544 5.764 19.948 19.948 0 0 0 -5.355 7.539 11.8 11.8 0 0 0 -.809 6.014 7.017 7.017 0 0 0 4.191 5.69 12.581 12.581 0 0 0 3.633.994.973.973 0 0 0 .911-.3c.383-.409.767-.817 1.144-1.231a47.091 47.091 0 0 1 6.369-5.972 19.216 19.216 0 0 1 5.643-3.106 8.512 8.512 0 0 1 3.644-.413 4 4 0 0 1 3.507 5.29 5.242 5.242 0 0 1 -1.192 2.1 14.631 14.631 0 0 1 -5.055 3.545 30.671 30.671 0 0 1 -10.182 2.359c-.782.06-1.567.111-2.35.116a1.451 1.451 0 0 0 -1.05.421c-.985.915-2 1.8-2.983 2.715a1.922 1.922 0 0 1 -2 .507.848.848 0 0 1 -.588-1.3 6.008 6.008 0 0 1 .91-1.2c.47-.514.984-.989 1.566-1.567-.285-.1-.472-.183-.669-.229a16.313 16.313 0 0 1 -4.624-1.731 8.307 8.307 0 0 1 -4.353-7.882 14.647 14.647 0 0 1 .348-2.745 19.763 19.763 0 0 1 5.421-9.791 46.8 46.8 0 0 1 10.879-7.971 78.729 78.729 0 0 1 18.31-7.022 111.467 111.467 0 0 1 14.612-2.692 122.128 122.128 0 0 1 16.94-.971 31.985 31.985 0 0 1 12.259 2.567 1.163 1.163 0 0 0 1.1-.075 17.237 17.237 0 0 1 6.652-1.938 13.589 13.589 0 0 1 2.845.082 5.679 5.679 0 0 1 4.937 4.324 9.8 9.8 0 0 1 .4 2.561c.04 3.5.05 7-.013 10.5-.032 1.762-.244 3.521-.375 5.281q-.04.542-.08 1.084zm-79.117 14.5.071.173c.639-.052 1.279-.089 1.916-.158a22.953 22.953 0 0 0 7.964-2.236 11.625 11.625 0 0 0 4.234-3.375c.418-.563.875-1.18.513-1.921s-1.131-.859-1.867-.919a5.745 5.745 0 0 0 -3 .656 19.177 19.177 0 0 0 -4.124 2.731c-1.827 1.572-3.632 3.168-5.444 4.756a3.22 3.22 0 0 0 -.263.29zm140.648-26.292c-1.776.344-6.448 5.823-6.463 7.39a55.081 55.081 0 0 0 5.566-5.979c.298-.401.534-.837.897-1.414zm-33.622 14.507a4.325 4.325 0 0 0 -2.975 2.459 6.36 6.36 0 0 0 2.975-2.461zm17.186.712a9.283 9.283 0 0 0 3.347-2.124 6.728 6.728 0 0 0 -3.352 2.121zm13.72-1.85a8.041 8.041 0 0 0 2.511-2.462 8.589 8.589 0 0 0 -2.511 2.459zm-107.094 7.81.145.14.469-.588-.11-.095z" transform="translate(743.717 762.031)"/><path d="m1336.784-604.876a5.327 5.327 0 0 1 2.992-4.388 1.179 1.179 0 0 1 1.338.1 1.085 1.085 0 0 1 .141 1.32 11.91 11.91 0 0 1 -2.511 3.819 1.945 1.945 0 0 1 -.526.388.908.908 0 0 1 -1.4-.691 3.661 3.661 0 0 1 -.034-.548z" transform="translate(-1162.081 619.222)"/></svg>