<svg viewBox="0 0 735 113.4" xmlns="http://www.w3.org/2000/svg">
    <filter id="dropshadow" height="130%">
  <feGaussianBlur in="SourceAlpha" stdDeviation="3"></feGaussianBlur> <!-- stdDeviation is how much to blur -->
  <feOffset dx="3" dy="3" result="offsetblur"></feOffset> <!-- how much to offset -->
  <feComponentTransfer>
    <feFuncA type="linear" slope="1"></feFuncA> <!-- slope is the opacity of the shadow -->
  </feComponentTransfer>
  <feMerge>
    <feMergeNode></feMergeNode> <!-- this contains the offset blurred image -->
    <feMergeNode in="SourceGraphic"></feMergeNode> <!-- this contains the element that the filter is applied to -->
  </feMerge>
</filter>
<circle r="10" style="filter:url(#dropshadow)"></circle>
<path filter="url(#dropshadow)" d="m491.4 0 3 .6c3.6.7 6.9 2.4 9.8 4.6 3.4 2.6 5.9 5.8 7.8 9.5 1.5 3 2.4 6.3 2.6 9.7.3 4.3-.5 8.4-2.3 12.4-1.5 3.5-3.8 6.5-6.7 9-3.5 3.1-7.6 5-12.1 5.8-5.6.9-11 .1-16-2.6-5.8-3.1-9.8-7.9-12.1-14.1-.9-2.5-1.4-5-1.5-7.6-.2-4.1.6-8.1 2.3-11.8 1.5-3.3 3.6-6.2 6.2-8.7 3.4-3.2 7.4-5.3 11.9-6.2.9-.2 1.9-.3 2.9-.5 1.3-.1 2.7-.1 4.2-.1zm-15.9 25.8c-.1 2.8 0 5.5.4 8.3.4 3 1.2 6 2.7 8.6 1.3 2.3 3.2 3.9 5.8 4.8 2.5.9 5 .9 7.5.5 2.4-.3 4.5-1.4 6.2-3.2 1.4-1.5 2.3-3.3 3-5.2 1.5-4.1 1.7-8.4 1.9-12.7.1-1.1-.1-2.3-.1-3.4-.1-2.2-.2-4.3-.5-6.4-.4-2.8-1.1-5.5-2.4-8-1.4-2.6-3.5-4.4-6.4-5.2-2.2-.6-4.3-.7-6.6-.4-3.9.5-6.9 2.4-8.7 5.9-1.7 3.2-2.2 6.8-2.6 10.3-.3 2.1-.2 4.1-.2 6.1zm-210.1-25.8c1 .3 2.2.3 3.2.6 3.9 1 7.4 2.7 10.4 5.3 4.4 3.7 7.3 8.3 8.8 13.8.7 2.4 1 4.9.8 7.4-.4 5.7-2.3 10.9-6 15.4-2.3 2.7-4.9 5-8.1 6.6-2.4 1.2-4.9 2.1-7.6 2.4-1.4.2-2.9.3-4.3.3-3.1-.1-6.1-.8-9-2-3.3-1.4-6.2-3.4-8.7-6.1-2.9-3.1-4.9-6.8-6.1-10.9-.9-3-1.1-6.1-.9-9.2.2-2.8.9-5.5 2.1-8 1.5-3.3 3.5-6.2 6.1-8.7 3.7-3.5 8-5.7 13-6.7.7-.1 1.5-.1 2.2-.3 1.4.1 2.8.1 4.1.1zm11.7 26.3c0-1.3-.1-2.4-.1-3.4-.1-1.9-.2-3.7-.5-5.6-.4-2.9-1.1-5.6-2.5-8.2-1.3-2.4-3.2-4.1-5.7-5-2.3-.8-4.8-.9-7.2-.6-4.5.5-7.5 2.9-9.3 7-1.6 3.6-2.1 7.5-2.2 11.4-.1 4-.2 7.9.4 11.9.4 2.9 1 5.7 2.4 8.3 1.5 2.7 3.6 4.6 6.5 5.6 1.8.6 3.7.6 5.5.5 2.8-.1 5.4-1.1 7.4-3.1 2.2-2.1 3.2-4.8 4-7.7 1-3.7 1.2-7.5 1.3-11.1zm-151.6-26.3c1.1.2 2.3.4 3.4.6 4.1 1 7.7 2.9 10.8 5.6 3.6 3.2 6.2 7.1 7.8 11.6 1.2 3.4 1.6 6.9 1.2 10.5-.5 5.1-2.3 9.7-5.5 13.8-2.5 3.2-5.6 5.7-9.3 7.4-2.6 1.2-5.3 1.9-8.1 2.2-3.5.4-6.9-.1-10.2-1.2-3-1-5.7-2.5-8.1-4.5-3-2.5-5.3-5.4-6.9-8.9-1.4-2.9-2.1-5.9-2.4-9-.5-6.1 1.1-11.7 4.5-16.7 4-5.9 9.6-9.7 16.7-11.1.7-.1 1.4-.1 2.1-.3h4zm11.7 25.8c.1-2.6-.1-5.3-.4-8-.4-3.1-1.1-6.1-2.7-8.9-1-1.8-2.4-3.2-4.2-4.1-2.3-1.1-4.7-1.4-7.2-1.3-2.4.1-4.6.6-6.6 2-2.2 1.6-3.6 3.7-4.5 6.2-1.5 4-1.8 8.3-1.9 12.5-.1 3.4.1 6.8.6 10.2.4 2.7 1.1 5.3 2.3 7.7 1.1 2.2 2.8 3.9 5 5 2.8 1.3 5.7 1.4 8.6.9 2.1-.3 4-1.2 5.6-2.7 2.2-2.1 3.4-4.7 4.1-7.6 1.1-3.8 1.4-7.8 1.3-11.9zm-137.2-25.3h40.4c1.2 0 1.3 0 1.4 1.3.2 2.5.4 4.9.6 7.4.2 2.4.5 4.8.7 7.2.1.5 0 .9-.7.8h-.3c-.9.2-1.5-.3-2-1.1-2.2-3.8-4.6-7.5-6.8-11.3-.3-.5-.6-.7-1.2-.7-3-.1-6-.2-8.9-.5-1.8-.1-3.7-.2-5.5-.3-.2 0-.3 0-.3.3v19.9c0 .7.2.9.9.9 1.9-.2 3.8-.3 5.7-.4.4 0 .7-.1 1.1 0 .8.1 1.1-.3 1.3-.9.8-2.1 1.6-4.3 2.4-6.4.1-.4.4-.5.8-.5 2 0 2-.1 2 1.9v16.8c0 .7-.2.9-.8.9-1.7 0-1.7 0-2.3-1.5-.7-1.8-1.5-3.6-2.2-5.4-.1-.3-.3-.5-.7-.5-2.1-.2-4.2-.4-6.4-.4h-.2c-1.6-.2-1.6-.2-1.6 1.4v16.8c0 1.1 0 1.1 1.1 1.3 1.8.3 3.5.7 5.3 1.1.5.1.8.3.7.9-.1.5 0 1 0 1.5s-.2.6-.6.6h-23.9v-2.9c1.9-.4 3.8-.9 5.7-1.3.7-.1.8-.4.8-1v-40.5-.5c0-.2-.1-.3-.3-.4-2.1-.8-4.1-1.2-6.2-1.7zm735 33.4c-.3 1-.3 2-.4 2.9-.3 2-.5 4.1-.7 6.1-.2 1.9-.4 3.7-.6 5.6l-.3 2.4c0 .3-.2.4-.4.4h-39.5c-1 0-1 0-1-1 0-1.9 0-1.9 1.9-2.3l4.2-.9c.3-.1.4-.2.4-.5v-.5-40.4c0-.7-.1-1-.8-1.1-1.6-.3-3.3-.7-4.9-1.1-.6-.1-.9-.4-.8-1 .1-.5 0-1 0-1.4 0-.5.2-.6.6-.6h23.3c.5 0 .6.1.6.6.1 2.3.1 2.3-2.2 2.7-1.5.3-2.9.6-4.4.9-.4.1-.6.2-.5.6v42c0 1 0 1 1 1 2.1-.1 4.2-.2 6.3-.4 1.8-.2 3.6-.2 5.4-.3.7 0 1.4-.1 2.1-.1.4 0 .5-.3.6-.6 2.4-4.1 4.8-8.2 7.1-12.4.5-1 1.1-1.5 2.3-1.3.3.1.7 0 1 0-.3.2-.3.4-.3.7zm-572-26.8c-.1 2.2 0 4.3.2 6.5.1 1.2.1 2.5.1 3.7.1 1.9.2 3.8.2 5.6.1 3.6.3 7.3.5 10.9.1 2.1.2 4.2.3 6.2.1 2.1.2 4.3.3 6.4 0 .4.1.5.5.6 1.7.4 3.3.8 5 1.2.5.1.7.3.7.9 0 2.1 0 2.1-2.1 2.1h-14.9c-.6 0-.9-.1-.9-.8 0-2 0-2 2-2.5l3.9-.9c.5-.1.6-.3.6-.8v-6.3-34.2c0-.8-.3-1.1-1-1.3-1.6-.3-3.2-.7-4.8-1.1-.6-.1-.8-.4-.7-1 0-2 0-2 2.1-2h16c.7 0 1.1.2 1.3.9 1.9 5.4 3.9 10.8 5.9 16.1 1.6 4.3 3.1 8.6 4.7 12.9.4 1.2.9 2.4 1.3 3.6.4-.1.4-.4.4-.7 1.4-4.1 2.8-8.2 4.2-12.4 1.9-5.5 3.7-11 5.6-16.5.4-1.1.8-2.3 1.2-3.4.1-.5.4-.6.9-.6h18.3c.5 0 .7.1.7.7 0 .7.2 1.5-.1 2s-1.2.4-1.9.6c-1.2.3-2.5.6-3.7.9-.6.1-.8.3-.8 1v40.7c0 .6.2.8.7.9 1.7.3 3.4.8 5.1 1.1.4.1.6.3.6.7.1 2.3.1 2.3-2.2 2.3h-20.1c-.7 0-.9-.2-.9-.9 0-2 0-2 1.9-2.5 1-.3 2.1-.5 3.1-.8.5-.1.7-.3.7-.9v-39.3-.2c-.3.1-.2.3-.3.5-1.8 5.4-3.7 10.7-5.5 16.1-2.1 6-4.2 12.1-6.2 18.1-.9 2.5-1.8 5.1-2.6 7.6-.2.5-.4.7-.9.7h-2.4c-.4 0-.6-.1-.8-.5-1.1-3-2.3-6.1-3.5-9.1-1.6-4.3-3.3-8.6-4.9-12.9-1.6-4.1-3.1-8.1-4.6-12.2-1-2.5-1.9-5-2.9-7.5-.1.1-.2 0-.3-.2zm366.4-6.6h11.3c4.3.1 8.5.7 12.4 2.8 3.7 2 6.1 4.9 6.8 9.1.6 3.8-.2 7.3-3.1 10.1-1.4 1.4-3.2 2.3-5 3-2 .8-4.1 1.2-6.2 1.6-.2 0-.5-.1-.4.2 0 .2.3.2.5.2 1.7.2 3.4.6 4.9 1.4 2.3 1.2 4 3 5.3 5.2 1.8 3.3 3.3 6.7 4.9 10.1.4.8.8 1.6 1.2 2.5.1.3.4.3.6.4 1.2.4 2.4.8 3.7 1.1.4.1.6.2.6.6v1.9c0 .4-.2.5-.5.5h-12.5c-1.8 0-2.6-.7-3.2-2.4-1.7-4.7-3.2-9.5-5.1-14.2-.6-1.5-1.3-3-2.4-4.2-1.3-1.4-2.9-1.7-4.6-1.8-1.3-.1-2.6 0-3.9 0-.5 0-.7.1-.7.6v17.2c0 .4.1.5.5.6l5.4 1.2c.5.1.8.3.7.9-.1.5 0 1 0 1.5s-.2.6-.6.6h-22.6c-.7 0-.9-.2-.8-.8v-.2c0-1.8 0-1.8 1.8-2.2 1.4-.3 2.8-.7 4.2-.9.5-.1.6-.3.5-.7v-1.1-39.7c0-.6-.1-.9-.8-1-1.7-.3-3.3-.7-5-1.1-.6-.1-.8-.4-.7-1 0-2.1 0-2.1 2.1-2.1 3.3.1 7 .1 10.7.1zm4.2 14.2v9.8c0 .6.1.8.7.8.7-.1 1.4 0 2 0 2.5 0 5.1.1 7.6-.6 2.4-.7 3.9-2.2 4.5-4.5.7-3.4.7-6.8.2-10.2-.3-1.8-1-3.5-2.7-4.5-1.4-.8-2.9-1.1-4.5-1.2-2.3-.1-4.7 0-7 0-.6 0-.8.2-.8.8zm-480.2 11.1v-20.3c0-.7-.3-.9-.8-1-1.7-.3-3.3-.7-5-1.1-.5-.1-.7-.3-.7-.9 0-2.1 0-2.1 2.1-2.1h22.3c3.7 0 7.4.5 10.8 2 3.6 1.5 6.6 3.8 7.9 7.7 1.4 4.2 1 9-2.6 12.3-1.9 1.8-4.2 2.8-6.6 3.6-1.5.5-3.1.7-4.6 1-.2 0-.5-.1-.4.2 0 .2.3.2.5.2 2 .2 4 .8 5.8 1.9 1.9 1.2 3.3 2.8 4.4 4.7 1.9 3.3 3.4 6.9 5 10.4.3.7.7 1.5 1 2.2.1.2.2.3.5.3l3.9 1.2c.4.1.5.3.5.6v1.9c0 .4-.2.5-.5.5h-12.5c-1.8 0-2.8-1-3.3-2.7-1.2-3.5-2.4-7-3.7-10.5-.9-2.5-1.8-4.9-3.3-7.1-.9-1.4-2.3-2.1-3.9-2.3-1.7-.3-3.5-.1-5.2-.2-.4 0-.6.1-.6.6v17.2c0 .5.2.6.6.7 1.8.4 3.5.8 5.3 1.2.6.1.8.4.8 1 0 2.1 0 2.1-2.1 2.1h-21.1c-.7 0-1-.2-.9-.9v-.2c0-1.9 0-1.9 1.8-2.3 1.4-.3 2.7-.6 4.1-.9.5-.1.6-.3.6-.7v-9.2c-.1-3.6-.1-7.3-.1-11.1zm10.9-11.1v9.8c0 .4 0 .7.6.7 2.8-.1 5.6.1 8.4-.3 3.2-.5 5.2-2.1 5.8-5.2.7-3.3.7-6.7 0-10.1-.3-1.7-1-3.3-2.6-4.2-1.4-.8-2.9-1.2-4.5-1.2-2.3-.1-4.6 0-6.9 0-.6 0-.9.1-.9.8.1 3.3.1 6.5.1 9.7zm271.3 20.9c-.1-2.7-.2-5.1-.3-7.6l-.3-7.5-.3-6.3c-.1-3-.3-6-.4-9 0-.3-.1-.4-.4-.5-2-.4-3.9-.8-5.9-1.2-.5-.1-.8-.3-.8-.9 0-2.1 0-2.1 2.1-2.1h15.5c.7 0 .9.1.9.8 0 2 0 2-2 2.5-1.1.3-2.2.5-3.3.8-.6.1-.8.4-.8 1v45.2c0 .8-.2 1-1 .9-.5-.1-1 0-1.5 0-1.9 0-1.9 0-3.1-1.5-5-6.9-10-13.8-15.1-20.8-4.7-6.4-9.4-12.9-14.1-19.3-.6-.8-1.2-1.6-1.8-2.6-.1 1.4.1 2.6.1 3.9 0 2.9.2 5.8.3 8.7.1 2.4.2 4.7.3 7.1l.3 7.8c.1 2.4.2 4.7.3 7.1.1 1.4.1 2.8.1 4.1 0 .5.1.8.8.9 1.9.3 3.9.8 5.8 1.1.6.1.9.3.8 1 0 2.1 0 2.1-2.1 2.1h-16.3c-.6 0-.9-.1-.8-.8v-.2c0-1.9 0-1.9 1.9-2.3l4.2-.9c.4-.1.5-.2.4-.5v-.4-40.5c0-.6-.1-.9-.7-1-1.7-.3-3.4-.8-5.1-1.1-.5-.1-.8-.3-.7-.9.1-.5 0-1.1 0-1.7 0-.3.1-.5.5-.5h16.8c.5 0 .9.1 1.2.6l5.1 7.2c3.9 5.5 7.9 11.1 11.8 16.6 2.3 3.3 4.6 6.6 7 9.8.1.2.3.4.6.9zm36.3 15.7h-20.9c-.7 0-1-.1-.9-.9 0-1.9 0-1.9 1.9-2.4 1.4-.3 2.8-.7 4.2-1 .4-.1.5-.2.5-.6v-.4-40.4c0-.8-.3-1-.9-1.1-1.5-.3-3-.7-4.5-1-.2-.1-.5 0-.6-.2-.9-.7-.3-1.7-.4-2.5-.1-.5.5-.4.7-.4h39.9c.5 0 .7.1.8.7.3 2.9.6 5.9.9 8.8.2 1.7.4 3.3.6 5 0 .4-.1.5-.4.5h-1c-.6.1-.9-.2-1.2-.7-2.1-3.3-4.2-6.5-6.2-9.8-.4-.7-.9-.9-1.7-.9-3-.1-6-.3-8.9-.6-.8-.1-1.6 0-2.5-.1s-1.9-.1-2.8-.2c-.6-.1-.8.2-.8.8v19.2c-.1.5.2.6.6.6 2.3-.2 4.6-.4 7-.5.4 0 .7-.2.9-.6.9-2.1 1.8-4.3 2.6-6.4.1-.4.3-.5.7-.5 2.1-.1 2.1-.1 2.1 1.9v15.8c0 .7-.2.9-.9.9-1.8 0-1.8 0-2.5-1.7s-1.4-3.3-2.1-4.9c-.1-.2-.3-.3-.5-.4-1.4-.1-2.9-.2-4.3-.3-1-.1-2-.1-3-.2-.6 0-.6.1-.6.6v19.9c0 .6.1.9.8.9 2.9-.2 5.7-.2 8.6-.3 2.5-.1 4.9-.3 7.4-.3.7 0 1.2-.2 1.6-.9 1.5-2.8 3.1-5.6 4.7-8.3.8-1.4 1.6-2.8 2.4-4.1.3-.5 2-.8 2.4-.5s.2.8.2 1.1c-.3 2.7-.6 5.3-.9 8l-.9 7.8c0 .3-.2.5-.5.5h-.6c-7.1.1-14.1.1-21 .1zm66-50.8h19.9c.8 0 1 .3 1 1 .2 2.5.4 4.9.6 7.4s.5 4.9.7 7.4c.1.6 0 .9-.8.9-1 0-1.6-.2-2.2-1.2-2.2-3.8-4.6-7.6-6.9-11.3-.2-.3-.4-.5-.8-.5-3.1-.1-6.1-.2-9.2-.5-1.8-.1-3.7-.2-5.5-.3-.3 0-.4 0-.4.3v20c0 .7.1.9.8.8 1.9-.2 3.8-.3 5.8-.4h.4c1.2.2 1.8-.3 2.2-1.5.6-1.9 1.4-3.8 2.1-5.7.2-.5.4-.7.9-.7 1.9 0 1.9 0 1.9 1.8v16.9c0 .7-.2.9-.8.8-1.6 0-1.6 0-2.2-1.5-.7-1.7-1.5-3.5-2.1-5.2-.3-.9-1.1-.8-1.7-.8-1.8-.2-3.5-.2-5.3-.3-.3 0-.6-.1-1-.1-.8-.1-1 0-1 .8v17.7c0 .5.1.8.7.9 1.9.3 3.8.8 5.7 1.2.4.1.6.3.6.7.1 2.3.1 2.3-2.2 2.3h-21.5c-.7 0-1-.2-.9-.9v-.2c0-1.8 0-1.8 1.8-2.2 1.4-.3 2.8-.7 4.3-.9.4-.1.5-.2.5-.6v-.4-40.4c0-.8-.3-1-1-1.1-1.6-.3-3.3-.7-4.9-1.1-.5-.1-.6-.3-.6-.8 0-2.2 0-2.2 2.2-2.2 6.5-.1 12.7-.1 18.9-.1zm188.1 50.8h-10.7c-.6 0-.8-.2-.8-.8.1-.6-.2-1.4.1-1.9s1.2-.4 1.8-.5l3.9-.9c.5-.1.7-.2.5-.9-1.7-4.2-3.3-8.5-4.9-12.7-.2-.5-.4-.6-.9-.6h-14.7c-.4 0-.7.1-.8.6-1.5 4.3-3.1 8.5-4.6 12.8-.2.5-.1.8.5.9 1.7.3 3.4.8 5.1 1.2h.1c.9.7.3 1.7.4 2.5.1.5-.5.4-.7.4h-16c-.6 0-.8-.2-.8-.8 0-2 0-2 2-2.5 1-.3 2.1-.5 3.1-.8.3-.1.5-.3.7-.6 1.8-4.4 3.6-8.9 5.4-13.3 2.5-6 4.9-12 7.4-18 1.8-4.3 3.6-8.7 5.3-13 .8-1.9.8-1.9 2.8-1.9h2.8c.5 0 .7.2.8.6 3.8 9.6 7.6 19.1 11.4 28.7 2.2 5.6 4.4 11.1 6.6 16.7.3.7.7.9 1.4 1.1 1.2.3 2.3.7 3.5 1 .4.1.6.3.6.8v1.5c.1.6-.3.7-.8.7-3.4-.3-6.9-.3-10.5-.3zm-18.4-39.8c-.4 1.1-.7 2-1.1 3-1.7 4.7-3.5 9.4-5.2 14.2-.3.8-.3.9.6.9h11.4c1 0 1 0 .7-.9-1.7-4.4-3.4-8.9-5.1-13.3-.3-1.3-.8-2.5-1.3-3.9zm52.7 15v20.9c0 .7.2 1 .9.9 2-.2 4.1-.3 6.1-.4.8-.1 1.6-.1 2.5-.1 1.7-.2 3.4-.3 5.1-.3.5 0 .7-.3.9-.6 1.2-2.1 2.4-4.1 3.6-6.2 1.4-2.4 2.7-4.7 4.1-7.1.1-.3.3-.4.6-.4h1c1.1 0 1.1.1 1 1.2-.3 2.1-.5 4.2-.7 6.3-.3 2.3-.6 4.7-.9 7-.1 1-.2 2-.3 3.1 0 .5-.2.7-.7.7h-39.5c-1 0-1 0-1-1 0-1.8 0-1.8 1.8-2.3 1.4-.3 2.7-.7 4.1-1 .5-.1.6-.3.6-.8v-8.3-32.4c0-.7-.2-.9-.8-1-1.6-.3-3.3-.7-4.9-1.1-.6-.1-.9-.4-.8-1 .1-.4 0-.9 0-1.4 0-.6.2-.7.7-.7h23.3c.5 0 .7.2.7.7 0 2.1 0 2.1-2 2.6-1.5.3-3 .7-4.6.9-.7.1-.7.4-.7 1v18.8c-.1.6-.1 1.3-.1 2zm-455.6 62.4h53c1.2 0 1.1-.1 1.1 1.1v.5c.1.5-.1.7-.6.7h-106.5c-.4 0-.9.2-1.1-.2-.2-.6-.1-1.2 0-1.9 0-.2.2-.2.4-.2zm328.1 2.3h-53c-1.2 0-1.1.1-1.1-1.1v-.5c-.1-.5.1-.7.6-.7h106.5c.4 0 .9-.2 1.1.2.2.6.1 1.2 0 1.9 0 .2-.2.2-.4.2zm-70.2-8.8c0-1.4 1.1-3 2.4-3.5.4-.2.8-.2 1.2.1s.2.8 0 1.1c-.5 1.1-1.1 2.1-1.9 3-.3.4-.8.7-1.3.5-.5-.3-.3-.8-.4-1.2z" fill="#faf5e5"/><path d="m334.7 99.1s0 .1-.1.1c0 0-.1-.1 0-.1zm84.8-4.6s0 .1 0 0z" fill="#fefefe"/><path d="m491.4 0 3 .6c3.6.7 6.9 2.4 9.8 4.6 3.4 2.6 5.9 5.8 7.8 9.5 1.5 3 2.4 6.3 2.6 9.7.3 4.3-.5 8.4-2.3 12.4-1.5 3.5-3.8 6.5-6.7 9-3.5 3.1-7.6 5-12.1 5.8-5.6.9-11 .1-16-2.6-5.8-3.1-9.8-7.9-12.1-14.1-.9-2.5-1.4-5-1.5-7.6-.2-4.1.6-8.1 2.3-11.8 1.5-3.3 3.6-6.2 6.2-8.7 3.4-3.2 7.4-5.3 11.9-6.2.9-.2 1.9-.3 2.9-.5 1.3-.1 2.7-.1 4.2-.1zm-15.9 25.8c-.1 2.8 0 5.5.4 8.3.4 3 1.2 6 2.7 8.6 1.3 2.3 3.2 3.9 5.8 4.8 2.5.9 5 .9 7.5.5 2.4-.3 4.5-1.4 6.2-3.2 1.4-1.5 2.3-3.3 3-5.2 1.5-4.1 1.7-8.4 1.9-12.7.1-1.1-.1-2.3-.1-3.4-.1-2.2-.2-4.3-.5-6.4-.4-2.8-1.1-5.5-2.4-8-1.4-2.6-3.5-4.4-6.4-5.2-2.2-.6-4.3-.7-6.6-.4-3.9.5-6.9 2.4-8.7 5.9-1.7 3.2-2.2 6.8-2.6 10.3-.3 2.1-.2 4.1-.2 6.1zm-210.1-25.8c1 .3 2.2.3 3.2.6 3.9 1 7.4 2.7 10.4 5.3 4.4 3.7 7.3 8.3 8.8 13.8.7 2.4 1 4.9.8 7.4-.4 5.7-2.3 10.9-6 15.4-2.3 2.7-4.9 5-8.1 6.6-2.4 1.2-4.9 2.1-7.6 2.4-1.4.2-2.9.3-4.3.3-3.1-.1-6.1-.8-9-2-3.3-1.4-6.2-3.4-8.7-6.1-2.9-3.1-4.9-6.8-6.1-10.9-.9-3-1.1-6.1-.9-9.2.2-2.8.9-5.5 2.1-8 1.5-3.3 3.5-6.2 6.1-8.7 3.7-3.5 8-5.7 13-6.7.7-.1 1.5-.1 2.2-.3 1.4.1 2.8.1 4.1.1zm11.7 26.3c0-1.3-.1-2.4-.1-3.4-.1-1.9-.2-3.7-.5-5.6-.4-2.9-1.1-5.6-2.5-8.2-1.3-2.4-3.2-4.1-5.7-5-2.3-.8-4.8-.9-7.2-.6-4.5.5-7.5 2.9-9.3 7-1.6 3.6-2.1 7.5-2.2 11.4-.1 4-.2 7.9.4 11.9.4 2.9 1 5.7 2.4 8.3 1.5 2.7 3.6 4.6 6.5 5.6 1.8.6 3.7.6 5.5.5 2.8-.1 5.4-1.1 7.4-3.1 2.2-2.1 3.2-4.8 4-7.7 1-3.7 1.2-7.5 1.3-11.1zm-151.6-26.3c1.1.2 2.3.4 3.4.6 4.1 1 7.7 2.9 10.8 5.6 3.6 3.2 6.2 7.1 7.8 11.6 1.2 3.4 1.6 6.9 1.2 10.5-.5 5.1-2.3 9.7-5.5 13.8-2.5 3.2-5.6 5.7-9.3 7.4-2.6 1.2-5.3 1.9-8.1 2.2-3.5.4-6.9-.1-10.2-1.2-3-1-5.7-2.5-8.1-4.5-3-2.5-5.3-5.4-6.9-8.9-1.4-2.9-2.1-5.9-2.4-9-.5-6.1 1.1-11.7 4.5-16.7 4-5.9 9.6-9.7 16.7-11.1.7-.1 1.4-.1 2.1-.3h4zm11.7 25.8c.1-2.6-.1-5.3-.4-8-.4-3.1-1.1-6.1-2.7-8.9-1-1.8-2.4-3.2-4.2-4.1-2.3-1.1-4.7-1.4-7.2-1.3-2.4.1-4.6.6-6.6 2-2.2 1.6-3.6 3.7-4.5 6.2-1.5 4-1.8 8.3-1.9 12.5-.1 3.4.1 6.8.6 10.2.4 2.7 1.1 5.3 2.3 7.7 1.1 2.2 2.8 3.9 5 5 2.8 1.3 5.7 1.4 8.6.9 2.1-.3 4-1.2 5.6-2.7 2.2-2.1 3.4-4.7 4.1-7.6 1.1-3.8 1.4-7.8 1.3-11.9zm-137.2-25.3h40.4c1.2 0 1.3 0 1.4 1.3.2 2.5.4 4.9.6 7.4.2 2.4.5 4.8.7 7.2.1.5 0 .9-.7.8h-.3c-.9.2-1.5-.3-2-1.1-2.2-3.8-4.6-7.5-6.8-11.3-.3-.5-.6-.7-1.2-.7-3-.1-6-.2-8.9-.5-1.8-.1-3.7-.2-5.5-.3-.2 0-.3 0-.3.3v19.9c0 .7.2.9.9.9 1.9-.2 3.8-.3 5.7-.4.4 0 .7-.1 1.1 0 .8.1 1.1-.3 1.3-.9.8-2.1 1.6-4.3 2.4-6.4.1-.4.4-.5.8-.5 2 0 2-.1 2 1.9v16.8c0 .7-.2.9-.8.9-1.7 0-1.7 0-2.3-1.5-.7-1.8-1.5-3.6-2.2-5.4-.1-.3-.3-.5-.7-.5-2.1-.2-4.2-.4-6.4-.4h-.2c-1.6-.2-1.6-.2-1.6 1.4v16.8c0 1.1 0 1.1 1.1 1.3 1.8.3 3.5.7 5.3 1.1.5.1.8.3.7.9-.1.5 0 1 0 1.5s-.2.6-.6.6h-23.9v-2.9c1.9-.4 3.8-.9 5.7-1.3.7-.1.8-.4.8-1v-40.5-.5c0-.2-.1-.3-.3-.4-2.1-.8-4.1-1.2-6.2-1.7zm735 33.4c-.3 1-.3 2-.4 2.9-.3 2-.5 4.1-.7 6.1-.2 1.9-.4 3.7-.6 5.6l-.3 2.4c0 .3-.2.4-.4.4h-39.5c-1 0-1 0-1-1 0-1.9 0-1.9 1.9-2.3l4.2-.9c.3-.1.4-.2.4-.5v-.5-40.4c0-.7-.1-1-.8-1.1-1.6-.3-3.3-.7-4.9-1.1-.6-.1-.9-.4-.8-1 .1-.5 0-1 0-1.4 0-.5.2-.6.6-.6h23.3c.5 0 .6.1.6.6.1 2.3.1 2.3-2.2 2.7-1.5.3-2.9.6-4.4.9-.4.1-.6.2-.5.6v42c0 1 0 1 1 1 2.1-.1 4.2-.2 6.3-.4 1.8-.2 3.6-.2 5.4-.3.7 0 1.4-.1 2.1-.1.4 0 .5-.3.6-.6 2.4-4.1 4.8-8.2 7.1-12.4.5-1 1.1-1.5 2.3-1.3.3.1.7 0 1 0-.3.2-.3.4-.3.7zm-572-26.8c-.1 2.2 0 4.3.2 6.5.1 1.2.1 2.5.1 3.7.1 1.9.2 3.8.2 5.6.1 3.6.3 7.3.5 10.9.1 2.1.2 4.2.3 6.2.1 2.1.2 4.3.3 6.4 0 .4.1.5.5.6 1.7.4 3.3.8 5 1.2.5.1.7.3.7.9 0 2.1 0 2.1-2.1 2.1h-14.9c-.6 0-.9-.1-.9-.8 0-2 0-2 2-2.5l3.9-.9c.5-.1.6-.3.6-.8v-6.3-34.2c0-.8-.3-1.1-1-1.3-1.6-.3-3.2-.7-4.8-1.1-.6-.1-.8-.4-.7-1 0-2 0-2 2.1-2h16c.7 0 1.1.2 1.3.9 1.9 5.4 3.9 10.8 5.9 16.1 1.6 4.3 3.1 8.6 4.7 12.9.4 1.2.9 2.4 1.3 3.6.4-.1.4-.4.4-.7 1.4-4.1 2.8-8.2 4.2-12.4 1.9-5.5 3.7-11 5.6-16.5.4-1.1.8-2.3 1.2-3.4.1-.5.4-.6.9-.6h18.3c.5 0 .7.1.7.7 0 .7.2 1.5-.1 2s-1.2.4-1.9.6c-1.2.3-2.5.6-3.7.9-.6.1-.8.3-.8 1v40.7c0 .6.2.8.7.9 1.7.3 3.4.8 5.1 1.1.4.1.6.3.6.7.1 2.3.1 2.3-2.2 2.3h-20.1c-.7 0-.9-.2-.9-.9 0-2 0-2 1.9-2.5 1-.3 2.1-.5 3.1-.8.5-.1.7-.3.7-.9v-39.3-.2c-.3.1-.2.3-.3.5-1.8 5.4-3.7 10.7-5.5 16.1-2.1 6-4.2 12.1-6.2 18.1-.9 2.5-1.8 5.1-2.6 7.6-.2.5-.4.7-.9.7h-2.4c-.4 0-.6-.1-.8-.5-1.1-3-2.3-6.1-3.5-9.1-1.6-4.3-3.3-8.6-4.9-12.9-1.6-4.1-3.1-8.1-4.6-12.2-1-2.5-1.9-5-2.9-7.5-.1.1-.2 0-.3-.2zm366.4-6.6h11.3c4.3.1 8.5.7 12.4 2.8 3.7 2 6.1 4.9 6.8 9.1.6 3.8-.2 7.3-3.1 10.1-1.4 1.4-3.2 2.3-5 3-2 .8-4.1 1.2-6.2 1.6-.2 0-.5-.1-.4.2 0 .2.3.2.5.2 1.7.2 3.4.6 4.9 1.4 2.3 1.2 4 3 5.3 5.2 1.8 3.3 3.3 6.7 4.9 10.1.4.8.8 1.6 1.2 2.5.1.3.4.3.6.4 1.2.4 2.4.8 3.7 1.1.4.1.6.2.6.6v1.9c0 .4-.2.5-.5.5h-12.5c-1.8 0-2.6-.7-3.2-2.4-1.7-4.7-3.2-9.5-5.1-14.2-.6-1.5-1.3-3-2.4-4.2-1.3-1.4-2.9-1.7-4.6-1.8-1.3-.1-2.6 0-3.9 0-.5 0-.7.1-.7.6v17.2c0 .4.1.5.5.6l5.4 1.2c.5.1.8.3.7.9-.1.5 0 1 0 1.5s-.2.6-.6.6h-22.6c-.7 0-.9-.2-.8-.8v-.2c0-1.8 0-1.8 1.8-2.2 1.4-.3 2.8-.7 4.2-.9.5-.1.6-.3.5-.7v-1.1-39.7c0-.6-.1-.9-.8-1-1.7-.3-3.3-.7-5-1.1-.6-.1-.8-.4-.7-1 0-2.1 0-2.1 2.1-2.1 3.3.1 7 .1 10.7.1zm4.2 14.2v9.8c0 .6.1.8.7.8.7-.1 1.4 0 2 0 2.5 0 5.1.1 7.6-.6 2.4-.7 3.9-2.2 4.5-4.5.7-3.4.7-6.8.2-10.2-.3-1.8-1-3.5-2.7-4.5-1.4-.8-2.9-1.1-4.5-1.2-2.3-.1-4.7 0-7 0-.6 0-.8.2-.8.8zm-480.2 11.1v-20.3c0-.7-.3-.9-.8-1-1.7-.3-3.3-.7-5-1.1-.5-.1-.7-.3-.7-.9 0-2.1 0-2.1 2.1-2.1h22.3c3.7 0 7.4.5 10.8 2 3.6 1.5 6.6 3.8 7.9 7.7 1.4 4.2 1 9-2.6 12.3-1.9 1.8-4.2 2.8-6.6 3.6-1.5.5-3.1.7-4.6 1-.2 0-.5-.1-.4.2 0 .2.3.2.5.2 2 .2 4 .8 5.8 1.9 1.9 1.2 3.3 2.8 4.4 4.7 1.9 3.3 3.4 6.9 5 10.4.3.7.7 1.5 1 2.2.1.2.2.3.5.3l3.9 1.2c.4.1.5.3.5.6v1.9c0 .4-.2.5-.5.5h-12.5c-1.8 0-2.8-1-3.3-2.7-1.2-3.5-2.4-7-3.7-10.5-.9-2.5-1.8-4.9-3.3-7.1-.9-1.4-2.3-2.1-3.9-2.3-1.7-.3-3.5-.1-5.2-.2-.4 0-.6.1-.6.6v17.2c0 .5.2.6.6.7 1.8.4 3.5.8 5.3 1.2.6.1.8.4.8 1 0 2.1 0 2.1-2.1 2.1h-21.1c-.7 0-1-.2-.9-.9v-.2c0-1.9 0-1.9 1.8-2.3 1.4-.3 2.7-.6 4.1-.9.5-.1.6-.3.6-.7v-9.2c-.1-3.6-.1-7.3-.1-11.1zm10.9-11.1v9.8c0 .4 0 .7.6.7 2.8-.1 5.6.1 8.4-.3 3.2-.5 5.2-2.1 5.8-5.2.7-3.3.7-6.7 0-10.1-.3-1.7-1-3.3-2.6-4.2-1.4-.8-2.9-1.2-4.5-1.2-2.3-.1-4.6 0-6.9 0-.6 0-.9.1-.9.8.1 3.3.1 6.5.1 9.7zm271.3 20.9c-.1-2.7-.2-5.1-.3-7.6l-.3-7.5-.3-6.3c-.1-3-.3-6-.4-9 0-.3-.1-.4-.4-.5-2-.4-3.9-.8-5.9-1.2-.5-.1-.8-.3-.8-.9 0-2.1 0-2.1 2.1-2.1h15.5c.7 0 .9.1.9.8 0 2 0 2-2 2.5-1.1.3-2.2.5-3.3.8-.6.1-.8.4-.8 1v45.2c0 .8-.2 1-1 .9-.5-.1-1 0-1.5 0-1.9 0-1.9 0-3.1-1.5-5-6.9-10-13.8-15.1-20.8-4.7-6.4-9.4-12.9-14.1-19.3-.6-.8-1.2-1.6-1.8-2.6-.1 1.4.1 2.6.1 3.9 0 2.9.2 5.8.3 8.7.1 2.4.2 4.7.3 7.1l.3 7.8c.1 2.4.2 4.7.3 7.1.1 1.4.1 2.8.1 4.1 0 .5.1.8.8.9 1.9.3 3.9.8 5.8 1.1.6.1.9.3.8 1 0 2.1 0 2.1-2.1 2.1h-16.3c-.6 0-.9-.1-.8-.8v-.2c0-1.9 0-1.9 1.9-2.3l4.2-.9c.4-.1.5-.2.4-.5v-.4-40.5c0-.6-.1-.9-.7-1-1.7-.3-3.4-.8-5.1-1.1-.5-.1-.8-.3-.7-.9.1-.5 0-1.1 0-1.7 0-.3.1-.5.5-.5h16.8c.5 0 .9.1 1.2.6l5.1 7.2c3.9 5.5 7.9 11.1 11.8 16.6 2.3 3.3 4.6 6.6 7 9.8.1.2.3.4.6.9zm36.3 15.7h-20.9c-.7 0-1-.1-.9-.9 0-1.9 0-1.9 1.9-2.4 1.4-.3 2.8-.7 4.2-1 .4-.1.5-.2.5-.6v-.4-40.4c0-.8-.3-1-.9-1.1-1.5-.3-3-.7-4.5-1-.2-.1-.5 0-.6-.2-.9-.7-.3-1.7-.4-2.5-.1-.5.5-.4.7-.4h39.9c.5 0 .7.1.8.7.3 2.9.6 5.9.9 8.8.2 1.7.4 3.3.6 5 0 .4-.1.5-.4.5h-1c-.6.1-.9-.2-1.2-.7-2.1-3.3-4.2-6.5-6.2-9.8-.4-.7-.9-.9-1.7-.9-3-.1-6-.3-8.9-.6-.8-.1-1.6 0-2.5-.1s-1.9-.1-2.8-.2c-.6-.1-.8.2-.8.8v19.2c-.1.5.2.6.6.6 2.3-.2 4.6-.4 7-.5.4 0 .7-.2.9-.6.9-2.1 1.8-4.3 2.6-6.4.1-.4.3-.5.7-.5 2.1-.1 2.1-.1 2.1 1.9v15.8c0 .7-.2.9-.9.9-1.8 0-1.8 0-2.5-1.7s-1.4-3.3-2.1-4.9c-.1-.2-.3-.3-.5-.4-1.4-.1-2.9-.2-4.3-.3-1-.1-2-.1-3-.2-.6 0-.6.1-.6.6v19.9c0 .6.1.9.8.9 2.9-.2 5.7-.2 8.6-.3 2.5-.1 4.9-.3 7.4-.3.7 0 1.2-.2 1.6-.9 1.5-2.8 3.1-5.6 4.7-8.3.8-1.4 1.6-2.8 2.4-4.1.3-.5 2-.8 2.4-.5s.2.8.2 1.1c-.3 2.7-.6 5.3-.9 8l-.9 7.8c0 .3-.2.5-.5.5h-.6c-7.1.1-14.1.1-21 .1zm66-50.8h19.9c.8 0 1 .3 1 1 .2 2.5.4 4.9.6 7.4s.5 4.9.7 7.4c.1.6 0 .9-.8.9-1 0-1.6-.2-2.2-1.2-2.2-3.8-4.6-7.6-6.9-11.3-.2-.3-.4-.5-.8-.5-3.1-.1-6.1-.2-9.2-.5-1.8-.1-3.7-.2-5.5-.3-.3 0-.4 0-.4.3v20c0 .7.1.9.8.8 1.9-.2 3.8-.3 5.8-.4h.4c1.2.2 1.8-.3 2.2-1.5.6-1.9 1.4-3.8 2.1-5.7.2-.5.4-.7.9-.7 1.9 0 1.9 0 1.9 1.8v16.9c0 .7-.2.9-.8.8-1.6 0-1.6 0-2.2-1.5-.7-1.7-1.5-3.5-2.1-5.2-.3-.9-1.1-.8-1.7-.8-1.8-.2-3.5-.2-5.3-.3-.3 0-.6-.1-1-.1-.8-.1-1 0-1 .8v17.7c0 .5.1.8.7.9 1.9.3 3.8.8 5.7 1.2.4.1.6.3.6.7.1 2.3.1 2.3-2.2 2.3h-21.5c-.7 0-1-.2-.9-.9v-.2c0-1.8 0-1.8 1.8-2.2 1.4-.3 2.8-.7 4.3-.9.4-.1.5-.2.5-.6v-.4-40.4c0-.8-.3-1-1-1.1-1.6-.3-3.3-.7-4.9-1.1-.5-.1-.6-.3-.6-.8 0-2.2 0-2.2 2.2-2.2 6.5-.1 12.7-.1 18.9-.1zm188.1 50.8h-10.7c-.6 0-.8-.2-.8-.8.1-.6-.2-1.4.1-1.9s1.2-.4 1.8-.5l3.9-.9c.5-.1.7-.2.5-.9-1.7-4.2-3.3-8.5-4.9-12.7-.2-.5-.4-.6-.9-.6h-14.7c-.4 0-.7.1-.8.6-1.5 4.3-3.1 8.5-4.6 12.8-.2.5-.1.8.5.9 1.7.3 3.4.8 5.1 1.2h.1c.9.7.3 1.7.4 2.5.1.5-.5.4-.7.4h-16c-.6 0-.8-.2-.8-.8 0-2 0-2 2-2.5 1-.3 2.1-.5 3.1-.8.3-.1.5-.3.7-.6 1.8-4.4 3.6-8.9 5.4-13.3 2.5-6 4.9-12 7.4-18 1.8-4.3 3.6-8.7 5.3-13 .8-1.9.8-1.9 2.8-1.9h2.8c.5 0 .7.2.8.6 3.8 9.6 7.6 19.1 11.4 28.7 2.2 5.6 4.4 11.1 6.6 16.7.3.7.7.9 1.4 1.1 1.2.3 2.3.7 3.5 1 .4.1.6.3.6.8v1.5c.1.6-.3.7-.8.7-3.4-.3-6.9-.3-10.5-.3zm-18.4-39.8c-.4 1.1-.7 2-1.1 3-1.7 4.7-3.5 9.4-5.2 14.2-.3.8-.3.9.6.9h11.4c1 0 1 0 .7-.9-1.7-4.4-3.4-8.9-5.1-13.3-.3-1.3-.8-2.5-1.3-3.9zm52.7 15v20.9c0 .7.2 1 .9.9 2-.2 4.1-.3 6.1-.4.8-.1 1.6-.1 2.5-.1 1.7-.2 3.4-.3 5.1-.3.5 0 .7-.3.9-.6 1.2-2.1 2.4-4.1 3.6-6.2 1.4-2.4 2.7-4.7 4.1-7.1.1-.3.3-.4.6-.4h1c1.1 0 1.1.1 1 1.2-.3 2.1-.5 4.2-.7 6.3-.3 2.3-.6 4.7-.9 7-.1 1-.2 2-.3 3.1 0 .5-.2.7-.7.7h-39.5c-1 0-1 0-1-1 0-1.8 0-1.8 1.8-2.3 1.4-.3 2.7-.7 4.1-1 .5-.1.6-.3.6-.8v-8.3-32.4c0-.7-.2-.9-.8-1-1.6-.3-3.3-.7-4.9-1.1-.6-.1-.9-.4-.8-1 .1-.4 0-.9 0-1.4 0-.6.2-.7.7-.7h23.3c.5 0 .7.2.7.7 0 2.1 0 2.1-2 2.6-1.5.3-3 .7-4.6.9-.7.1-.7.4-.7 1v18.8c-.1.6-.1 1.3-.1 2zm-455.6 62.4h53c1.2 0 1.1-.1 1.1 1.1v.5c.1.5-.1.7-.6.7h-106.5c-.4 0-.9.2-1.1-.2-.2-.6-.1-1.2 0-1.9 0-.2.2-.2.4-.2zm328.1 2.3h-53c-1.2 0-1.1.1-1.1-1.1v-.5c-.1-.5.1-.7.6-.7h106.5c.4 0 .9-.2 1.1.2.2.6.1 1.2 0 1.9 0 .2-.2.2-.4.2zm-70.2-8.8c0-1.4 1.1-3 2.4-3.5.4-.2.8-.2 1.2.1s.2.8 0 1.1c-.5 1.1-1.1 2.1-1.9 3-.3.4-.8.7-1.3.5-.5-.3-.3-.8-.4-1.2z" fill="#faf5e5"/><path d="m334.7 99.1s0 .1-.1.1c0 0-.1-.1 0-.1zm84.8-4.6s0 .1 0 0z" fill="#fefefe"/><path filter="url(#dropshadow)" d="m462.6 92.8c-.5-.1-1.1-.2-1.6-.3-1.3-.1-1.5-.4-1-1.6.6-1.2 1.2-2.3 1.7-3.5.2-.4.4-.9.4-1.4 0-.8-.4-1.2-1.2-1.1-.4 0-.7.2-1.1.4-.9.5-1.8 1-2.7 1.6-2.1 1.4-4.2 2.7-6.2 4.1-.3.2-.6.5-.9.3s.1-.6.2-.9c.5-.9 1-1.7 1.5-2.6.4-.8.3-1.5-.2-1.9-.7-.6-1.3-.5-2.1.2-1.2 1.1-2 2.6-3.1 3.8-.6.7-1.1 1.5-2 1.9-.1-.2 0-.3 0-.4.4-1 .9-2.1 1.3-3.1.5-1.4-.2-2.1-1.6-1.7-1.2.3-2.2 1-3.2 1.6-2.7 1.7-5.1 3.7-7.9 5.3-.3.2-.6.5-.8.3-.3-.3.1-.6.2-1 0-.1.1-.2.2-.3.7-1.3 2-2.1 3.1-3 2.5-2.1 4.8-4.4 6.8-7 1.1-1.4 1.9-3 1.7-4.9-.1-1-.6-1.5-1.6-1.5-.9 0-1.7.3-2.4.7-2.1 1.1-3.5 2.9-4.8 4.8-1.7 2.4-3.2 5-4.5 7.6-.1.3-.3.5-.6.6-2.5.5-4.7 1.6-6.9 2.8-1.3.7-2.5 1.5-3.9 2.1 0-.2.1-.4.1-.7.2-1 .1-1.9-.8-2.5-.8-.5-1.5-.1-2.2.4-1 .6-1.9 1.2-2.9 1.9-.1.1-.2.2-.4.1 0-.2 0-.5.1-.7.2-1.3-1.3-2.4-2.5-1.6-.5.3-1 .5-1.5.8-.3.1-.5.2-.8 0-.8-.9-1.7-.6-2.6-.2-1.3.5-2.5.9-3.8 1.4-.5.2-.7 0-.5-.5.2-.7.4-1.3.6-2 1.3-3.9 2.5-7.8 4.3-11.5.4-.9 1-1.8 1.7-2.6.5-.5.8-1 .4-1.7-.5-.8-1.1-.9-1.9-.8l-.9.3c-2.2 1.2-4.1 2.8-5.9 4.5-2 2-4 3.9-5.9 6-1.8 2-3.7 4-5.6 6-.1.1-.1.2-.3.2-.2-.1-.1-.2-.1-.4.1-.2.1-.3.2-.5.6-2 1.5-4 1.8-6.1.1-.8.2-1.6-.3-2.2-.6-.7-1.6-.8-2.8-.2-2.7 1.3-4.7 3.4-6.9 5.3-1.2 1.1-2.2 2.3-3.3 3.4-.1.1-.3.4-.5.3s-.1-.4-.1-.6c0-.4.1-.8.1-1.3.2-2.9.3-5.8.5-8.7.1-2.5-.2-4.9-.1-7.4 0-.6 0-1.3-.2-1.9-.6-2.7-2-4.7-4.8-5.5-1.5-.4-3-.3-4.4-.2-2.4.2-4.7 1.1-6.9 2.2-.3.2-.6.1-.9 0-3.7-1.7-7.6-2.5-11.6-2.8-3.5-.2-7-.1-10.6.1-.9.1-1.8 0-2.6.1-2.7.3-5.4.5-8.1.9-2.2.3-4.4.6-6.5 1-3.2.6-6.4 1.3-9.6 2.2-4.9 1.4-9.7 3.1-14.3 5.3-3.3 1.6-6.5 3.4-9.6 5.6-2.7 1.9-5.3 4-7.3 6.7-2.9 3.7-4.7 7.9-4.5 12.8.1 2.7 1.4 5 3.5 6.6 1.9 1.4 4 2.2 6.3 2.7.6.1.4.3.2.6-.7.7-1.4 1.3-1.9 2-.8 1-.7 1.3.3 2.1h1.4c1.2-1.1 2.5-2.2 3.7-3.4.5-.5 1-.7 1.7-.7 3 .1 5.9-.4 8.8-1.1 3.7-.9 7.2-2.4 9.8-5.4 1.1-1.2 1.6-2.6 1.4-4.1-.4-2.8-2.2-3.8-4.7-3.9-2.7-.1-5 1.1-7.2 2.4-1.8 1.1-3.3 2.4-4.9 3.8-1.7 1.5-3.3 3.1-4.7 4.9-.6.7-1.2 1-2.1.8-.2 0-.4-.1-.6-.1-2.1-.5-4.1-1.2-5.6-3-1.4-1.8-1.8-3.9-1.7-6.1.1-2.1.7-4 1.5-5.8 1.5-3.1 3.7-5.6 6.3-7.8 3.8-3.1 8.1-5.4 12.6-7.3 4.5-1.8 9-3.4 13.7-4.7 4.4-1.2 8.9-2.2 13.4-3 3.3-.6 6.6-1 9.9-1.4 2.4-.3 4.9-.3 7.3-.6 1.1-.1 2.1.1 3.2.2 2.2 0 4.3.3 6.5.8 1.3.3 2.7.6 3.9 1.4-.3.2-.5.3-.7.4-2.2 1.2-4.4 2.5-6.5 4-1.6 1.1-3.1 2.2-4.5 3.5-.7.7-.9 1.4-.5 1.8.4.5 1.3.5 2 0 1.9-1.2 3.8-2.5 5.7-3.8 2.2-1.4 4.2-3 6.6-4.1.2-.1.5-.3.8-.2 1.9 1 2.3 3.5.8 5.1-2.1 2.3-4.7 3.8-7.6 4.9-5.7 2.2-11.5 4-17.4 5.5-2.7.7-5.5 1.3-8.2 2.2-3 1-5.8 2.4-8.6 3.9-2.7 1.5-5 3.3-6.4 6-.5 1-1.1 2-.7 3.1.4 1.5 1.8 2.5 3.4 2.6 1.7 0 3.4-.3 5.1-.7.4-.1.5 0 .7.3.4.8 1 1.2 2 1.3.9 0 1.6-.5 2.3-1 1.7-1.3 3.5-2.4 5.5-3.2.3-.1.7-.4.9.1.7 1.4 1.7 1.4 3 .8.8-.3 1.5-.8 2.2-1.2.4-.2.6-.3.8.1.3.5.8.6 1.4.7 1.5 0 2.6-.8 3.9-1.4.4-.2.6-.2 1-.1.6.2 1.2.4 1.8.2.3-.1.6-.2.8 0s-.2.4-.2.7c-.1.6-.3 1.2.3 1.7.5.5 1.1.3 1.7.1.3-.1.6-.3.9-.5 2.7-1.7 5.1-3.9 7.5-6 .2-.2.3-.6.6-.4.2.1.1.5 0 .7-.3 1.5.2 3 1.3 3.6.7.4 1.4.3 2.1.3 1.5-.1 2.8-.6 4-1.6.4-.3.6-.8.4-1.3-.3-.5-.7-.5-1.2-.3-.9.3-1.7.7-2.6.6-.7 0-1-.4-1.1-1-.1-.8.1-1.5.3-2.2.1-.5.4-.7.8-.7 1 0 2-.2 3.1-.2 1.2.1 2.4 0 3.6-.2.7-.1 1.4-.1 2-.4.7-.3.9-.9.7-1.5s-.7-.9-1.4-.8c-1.8.3-3.6.5-5.4.5-.6 0-.6-.1-.3-.6.5-.7 1-1.5 1.4-2.3.3-.8-.1-1.4-.9-1.3-.3 0-.5.1-.7.2-1.3.7-2.3 1.7-3.3 2.7-1.1 1.1-2.4 1.6-3.8 1.6-2 .1-4 .1-6 .2-.6 0-1 .2-1.1.8s0 1.2.7 1.4c.3.1.6.2 1 .2h3.7c.1.2-.1.3-.2.4l-2.7 2.1c-.2.2-.4.1-.6-.1-.5-.6-1-.4-1.6-.2-.7.3-1.3.7-2 1-.2.1-.3.2-.6 0 .2-.3.4-.5.5-.8.5-.8.5-1.7.1-2.3-.5-.6-1.3-.9-2-.7-1.4.5-2.6 1.5-2.8 3s-1.4 1.9-2.4 2.5c-.2.1-.4.1-.3-.3l.3-1.2c.2-.6 0-1.1-.6-1.5s-1.1-.3-1.5.2c-.2.2-.4.4-.5.6-.7.8-1.3 1.7-2.4 2 0 .1 0 .1-.1.2 0 0-.1-.1 0-.1l.1-.1c.6-1.2 1.5-2.2 2.2-3.2 1-1.5 2.1-3 2.5-4.8.2-.7.1-1.2-.5-1.6-.6-.3-1.2-.1-1.6.4-.9.9-1.7 1.7-2.5 2.7-1.2 1.4-2.3 2.7-3.5 4-.9 1-1.8 2.1-3 2.9-.6.4-.9.3-1-.5s-.6-1-1.3-1.1c-.5-.1-1.1.1-1.5.3-1 .6-1.9 1.1-2.8 1.7-1.8 1.2-3.7 1.9-5.9 1.7-1.3-.1-1.6-.6-1.2-1.8.3-.9.9-1.6 1.5-2.2 1.7-1.7 3.7-3 5.9-4.1 3.5-1.9 7.3-3 11.1-4 6.6-1.8 13.3-3.6 19.7-6 3.7-1.4 7-3.2 9.7-6.2 2-2.3 2.3-4.9.3-7.4-.4-.5-.3-.7.2-.9 1.8-.8 3.7-1.2 5.6-1.3 2.1-.1 3.6.5 4.5 2.7.4 1.1.6 2.3.6 3.5.1 2.7-.1 5.4-.2 8.1 0 1.1 0 2.3-.1 3.4-.2 2.5-.4 4.9-.6 7.4-.1 1.2-.3 2.4-.4 3.6s-.3 2.3-.3 3.5c0 .7.7 1.4 1.4 1.5.6.1 1.3-.4 1.4-1.2.2-1 .5-1.9 1-2.8 1-2.1 2.4-3.9 4-5.7 1.8-2 3.8-3.8 6-5.3.1-.1.3-.2.5-.1s.1.3 0 .5c-.3.9-.5 1.8-.8 2.8-1.1 3.6-2.4 7.1-4 10.5-.2.5-.3 1 .1 1.5.7.9 1.6.8 2.3-.2 2.9-4.3 6.3-8.2 9.9-11.9 2.7-2.9 5.6-5.6 8.4-8.3.1-.1.2-.2.4-.2.1.2-.1.4-.1.6-1 2.8-2.1 5.6-3 8.4-1.2 3.5-2.3 7.1-3.3 10.7-.5 1.9-1.1 3.8-.8 5.9.1.8.7 1.6 1.4 1.6.6.1 1.2-.5 1.3-1.4.2-1 .3-2.1.3-3.1.1-1.9.7-3.6 1.5-5.3.6 1 1.4 1.6 2.1 1.5 1.4-.3 2.7-.9 3.6-2.1.9-1.1 1.7-2.2 2.9-2.7.2-.1.4-.2.6 0 .2.1 0 .3 0 .5-.2.9-.5 1.8-.7 2.7-.2.7.2 1.6.7 1.9.7.3 1.3.2 1.8-.4.9-1.2 2.1-2.2 3.2-3.2.6-.6 1.3-1.2 2.2-1.5v.4c-.3 1.6.7 2.6 2.3 2.2.6-.2 1.3-.3 1.8-.6s1-.3 1.6.1c1.3.9 2.7.9 4.1.2 1-.5 1.8-1.1 2.7-1.8.4-.3.6-.3.8.2.6 1 1.3 1.3 2.5 1 1.3-.3 2.5-1 3.7-1.6.4-.2.6-.2.9.1 1.2 1.1 2.3 1.2 3.7.3.6-.4 1.2-.8 1.6-1.3.3-.4.5-.5.8 0s.7.6 1.3.7c.8 0 1.3-.4 1.8-.9.2-.1.3-.4.6-.1.9 1.3 1.3 1.4 2.7.7 2.3-1.1 4.4-2.5 6.5-3.8.7-.5 1.5-.9 2.2-1.4 0 .1.1.1.1.2-.6.9-1.2 1.8-1.6 2.8-.5 1.2-.1 2.4 1.2 2.8 1.7.5 3.3.2 4.9-.4.4-.1.7-.4.6-.8-.3-.7-.5-1.1-1-1.2zm-25.2-10c1.1-1.5 2.2-2.8 3.7-3.9.2-.2.6-.5.8-.3.3.3-.1.6-.3.8-1.7 2.6-4 4.7-6.2 6.9-.1.1-.2.2-.4.2.7-1.4 1.6-2.5 2.4-3.7zm-137.6 16.6c1.6-1 3.2-1.9 5.3-1.7.4 0 .7.1 1.1.3 1.1.5 1.1 1.6.2 2.8-1.8 2.3-4.2 3.6-6.8 4.6-2.3.9-4.7 1.4-7.2 1.5-.5 0-1 .2-1.5 0 3-2.6 5.6-5.4 8.9-7.5zm102.8-2.4c.7-1.4 1.8-2.3 3.2-2.8-.7 1.3-1.9 2.2-3.2 2.8zm21.8-1.8c.7-1 2.4-2.2 3.7-2.4-.5.7-2.6 2-3.7 2.4zm14.6-1.9c.8-1.3 1.9-2.1 3-3.1-.2.7-2.1 2.7-3 3.1z" fill="#faf5e5"/></svg>