<svg viewBox="0 0 300 132.2" xmlns="http://www.w3.org/2000/svg"><path d="m82.7 132.2c0-.2-.2-.3-.4-.3-1.6.1-3-.4-4.4-.8-1.3-.4-2.5-1-3.6-1.7-1.4-.9-2.8-1.9-3.9-3.1l-1.5-1.8c-.8-1.1-1.5-2.2-2.1-3.4-.8-1.6-1.4-3.3-1.6-5-.2-1.5-.3-2.9-.2-4.4.1-1.8.4-3.5 1-5.1.8-2.1 1.9-4.1 3.3-5.9.7-.9 1.5-1.7 2.3-2.4 1.5-1.3 3.2-2.4 5-3.2 1.3-.5 2.5-.9 3.9-1.2.6-.1 1.2-.2 1.8-.2.5 0 1 .1 1.4-.1h.3c1.2.2 2.5.1 3.7.4 1.1.3 2.2.6 3.3 1 1.3.6 2.6 1.2 3.7 2.1 1.2.9 2.3 1.8 3.3 3 1.1 1.3 2 2.6 2.8 4.1.3.5.5 1 .7 1.5.5 1.3 1 2.7 1.2 4.1s.3 2.9.2 4.3-.3 2.8-.7 4.2c-.4 1.1-.8 2.3-1.3 3.3-.6 1.2-1.3 2.3-2.1 3.3s-1.7 1.8-2.6 2.7c-.9.8-1.9 1.5-3 2.2-1.9 1.1-4.1 1.8-6.2 2.3-.4.1-.8 0-1.2 0-.2 0-.4 0-.4.3-.9-.2-1.8-.2-2.7-.2zm-9-19.2c.1 1-.1 2.2.1 3.4.1.7.1 1.4.2 2.1.3 2 .7 3.9 1.6 5.7.7 1.6 1.7 2.8 3.1 3.8 1.5 1 3.1 1.3 4.9 1.4 1 .1 2 0 3-.3 1.4-.3 2.7-.9 3.8-1.9 1.5-1.4 2.4-3.3 3-5.3.4-1.4.7-2.8.8-4.3.1-1.2.3-2.4.2-3.6 0-1.7.1-3.4-.1-5.1-.1-1.2-.2-2.5-.4-3.7-.3-1.8-.8-3.5-1.7-5.1-.7-1.2-1.6-2.2-2.7-3-1.3-.9-2.9-1.2-4.4-1.3-1.6-.1-3.2.1-4.7.6-1.3.5-2.4 1.2-3.3 2.3-1.2 1.4-1.8 3.1-2.3 4.8-.3 1.3-.6 2.6-.7 3.9s-.3 2.6-.2 3.9c-.2.6-.2 1.1-.2 1.7zm21.9-113c.3.2.7.2 1 .3 1.4.2 2.7.6 4 1 1.7.7 3.3 1.6 4.8 2.7 1 .8 1.9 1.7 2.8 2.6.9 1 1.6 2.1 2.3 3.3 1 1.7 1.7 3.6 2.1 5.5.5 1.9.4 3.9.4 5.9 0 .6-.1 1.3-.3 1.9-.6 2.6-1.6 5.1-3.1 7.3-.7 1-1.5 2-2.4 2.8-2 1.9-4.3 3.5-7.1 4.4-1 .3-2 .6-3 .8-.6.1-1.3.1-1.9.2-1.4.1-2.8 0-4.2-.1-.7-.1-1.4-.3-2-.4-2.6-.7-5-2-7.1-3.7-1.8-1.4-3.2-3.2-4.4-5.2-.9-1.5-1.5-3.1-2-4.7-.3-1-.5-2.1-.5-3.2 0-.8-.2-1.6-.1-2.4.1-1.9.3-3.7.9-5.5.8-2.4 2-4.6 3.7-6.5 1.4-1.6 2.9-3 4.7-4.1 1.6-1 3.3-1.8 5.2-2.2.6-.2 1.3-.4 2-.4.4 0 .7 0 1-.2 1-.1 2.1-.1 3.2-.1zm-1.7 2.6c-.8-.1-1.6.1-2.4.2-1.7.4-3.3 1.2-4.5 2.6-1.1 1.3-1.8 2.8-2.3 4.5-.3 1.1-.5 2.3-.7 3.5s-.3 2.4-.3 3.5c0 1.9-.1 3.8.1 5.7.1 1.2.2 2.4.4 3.5.3 2.2 1 4.2 2.2 6.1.9 1.4 2 2.3 3.5 3 .9.4 1.8.5 2.7.7 1.4.2 2.7.1 4-.2 1.3-.2 2.4-.8 3.4-1.6 1.4-1.2 2.3-2.6 2.9-4.4.4-1.2.7-2.3.9-3.6.2-1.2.3-2.4.5-3.7.1-1-.1-2 .1-3 .1-.4-.1-.8-.1-1.2-.1-1.1 0-2.2-.1-3.3-.1-.9-.2-1.8-.3-2.8-.2-1.4-.6-2.8-1.1-4.2-.6-1.7-1.7-3.1-3.2-4.1-.3-.2-.7-.5-1.1-.6-1.5-.3-3-.7-4.6-.6zm106.4-2.6c.3.2.7.2 1 .2 1.9.2 3.6.8 5.3 1.6 1.6.8 3 1.8 4.4 3 1.6 1.3 2.8 2.9 3.9 4.7 1.2 1.9 2 3.9 2.4 6.1.3 1.7.5 3.3.4 5-.1 1-.2 2.1-.4 3.1-.5 2.3-1.5 4.5-2.8 6.5-1 1.5-2.3 2.8-3.6 4.1-1 1-2.2 1.7-3.5 2.4-1.8.9-3.7 1.6-5.7 1.9-1.1.2-2.2.2-3.3.2-1.8-.1-3.6-.2-5.4-.8-2.4-.8-4.5-2-6.5-3.6-2.6-2.2-4.5-4.9-5.7-8.1-.5-1.2-.8-2.4-1-3.6-.2-1.4-.3-2.8-.2-4.2.1-1.7.3-3.3.9-4.9.8-2.2 1.9-4.3 3.4-6.1 2-2.5 4.5-4.5 7.4-5.7 1.5-.7 3.1-1.1 4.8-1.3.3 0 .7 0 1-.2 1.2-.3 2.2-.3 3.2-.3zm-11.8 19.6c.1 1 0 2.3.1 3.6.1 1 .2 1.9.3 2.9.3 1.6.7 3.2 1.4 4.8.7 1.4 1.6 2.7 2.9 3.6 1.5 1.1 3.3 1.5 5.2 1.6.7 0 1.4 0 2.1-.1 1.8-.2 3.4-.9 4.7-2.2 1.4-1.3 2.2-3 2.8-4.8.4-1.2.7-2.5.8-3.8.1-1.1.3-2.1.3-3.2 0-2.1.1-4.2-.1-6.2-.1-1.2-.2-2.4-.4-3.7-.3-1.9-.8-3.7-1.8-5.4-.5-.9-1.2-1.7-2.1-2.4-1.4-1.1-3.1-1.6-4.9-1.7-1.4-.1-2.8 0-4.1.4s-2.5 1-3.5 2c-1.3 1.3-2.1 3-2.6 4.8-.3 1.1-.5 2.2-.7 3.4-.2 1.3-.3 2.7-.4 4zm-188.5 48h69.9c.8 0 .8 0 .7.8 0 .5-.1.5-.5.5h-70.1zm300 1.3h-69.6c-.8 0-.9.1-.9-.9 0-.2.1-.4.3-.4h70.2zm-150.3-63.7c0 .1-.1.2-.1.3-.7 1.9-1.3 3.8-2 5.7l-2.1 6.3c-.8 2.2-1.6 4.4-2.3 6.7-.4 1.1-.7 2.2-1.1 3.3l-2.4 6.9c-.3.8-.6 1.6-.8 2.5-.1.3-.3.4-.6.4h-2c-.3 0-.5-.1-.6-.4l-1.5-3.9c-.8-2.1-1.7-4.3-2.5-6.4-.7-1.8-1.4-3.5-2-5.3-.5-1.4-1.1-2.8-1.6-4.2-.7-1.8-1.3-3.6-2-5.3-.6-1.5-1.2-3.1-1.8-4.6l-.3-.9c-.1-.3-.2-.7-.5-1.1.1 1-.1 1.9.1 2.7v.6c-.1 1.8.1 3.5.2 5.3 0 .9 0 1.9.1 2.8.2 1.2-.1 2.4.2 3.6v.1c-.1 1.6.1 3.1.2 4.7 0 1.2 0 2.4.1 3.6.1.9 0 1.8.1 2.7.1 1.1.1 2.2.1 3.4 0 .4.1.5.6.6 1.1.3 2.2.5 3.3.8.9.2.8 0 .8 1v.9c0 .3-.1.5-.5.4h-12.6c-.2 0-.3-.1-.3-.3v-1.6c0-.2.1-.3.3-.3.7-.2 1.4-.4 2.1-.5s1.3-.3 2-.4c.3 0 .5-.2.5-.6v-.3-29.9-.5c0-.2-.1-.3-.3-.3-.8-.1-1.6-.4-2.5-.5-.6-.1-1.2-.3-1.8-.4-.3 0-.4-.2-.4-.4v-1.4c0-.2.1-.4.4-.4h13.2c.8 0 .8 0 1.1.8 1.3 3.4 2.5 6.8 3.8 10.2.6 1.6 1.2 3.3 1.8 4.9.8 2.2 1.6 4.3 2.4 6.5.2.6.5 1.3.7 2 .1.2.1.4.3.5.2-.1.2-.3.3-.5.6-1.8 1.2-3.6 1.8-5.3.7-2.1 1.5-4.2 2.2-6.2.5-1.4 1-2.9 1.4-4.3l2.4-6.9c.1-.3.3-.7.4-1 .1-.4.3-.5.7-.5h14c.3 0 .4.2.3.4-.1.4-.1.9-.1 1.4 0 .3-.2.4-.5.5-.9.2-1.9.4-2.8.6-.4.1-.7.2-1.1.2-.3 0-.4.2-.4.4v30.7c0 .3.1.5.5.6 1.3.3 2.6.6 4 .9.4.1.5.2.5.6v1.1c0 .4-.1.5-.6.5h-16.1c-.9 0-.8.1-.8-.8 0-.4.2-.8.1-1.2 0-.2.2-.3.4-.4 1.1-.3 2.2-.6 3.3-.8.3-.1.5-.2.5-.5v-.3-28.5-.6c-.1-.4-.2-.4-.2-.4zm-103.3-4.8h8.7c1.2 0 2.5.2 3.7.3 1.2.2 2.2.5 3.2.8 1.9.6 3.7 1.6 5 3.1 1.2 1.3 2 2.8 2.2 4.6.2 1.7.2 3.4-.5 5-.5 1.2-1.3 2.2-2.3 3-2 1.6-4.4 2.3-6.8 2.8-.4.1-.8.1-1.2.2-.1 0-.3 0-.3.2s.2.2.3.2c.9.1 1.7.2 2.5.5 1.5.5 2.7 1.3 3.8 2.4.7.8 1.3 1.6 1.7 2.5.8 1.5 1.5 3.1 2.2 4.7.5 1 .9 2 1.4 3l.3.6c.1.6.5.8 1 1 .8.2 1.6.5 2.4.7.5.1.6.2.6.8v1c0 .4-.1.5-.5.5h-9.1c-.3 0-.6 0-1-.1-.7-.2-1.2-.5-1.4-1.2-.2-.6-.5-1.2-.7-1.9-.7-2-1.4-4-2.1-5.9-.5-1.4-1.1-2.9-1.7-4.3-.4-.8-.8-1.7-1.5-2.3-.3-.2-.5-.5-.8-.6-.8-.4-1.7-.6-2.6-.6h-2.5c-.6 0-.6 0-.6.6v12.6c0 .5 0 .5.6.7l3.9.9c.3.1.5.2.5.6v1.2c0 .4-.1.5-.5.5h-16.6c-.8 0-.8 0-.8-.8v-.9c0-.4.2-.6.5-.6 1.3-.3 2.6-.5 3.9-.8.4-.1.5-.1.5-.5v-.4-29.9-.5c0-.2-.1-.3-.3-.3-1.5-.4-2.7-.8-3.8-1-.3-.1-.5 0-.8-.1-.2-.1-.3-.2-.3-.4v-1.4c0-.3.2-.4.4-.4h.5c3-.1 5.9-.1 8.9-.1zm3.2 10.6v7c0 .9-.1.9.8.9 1.6 0 3.2.1 4.8-.1.6-.1 1.3-.1 1.9-.3 1.7-.4 2.9-1.5 3.4-3.3.4-1.2.3-2.5.5-3.8.1-.8-.1-1.5-.1-2.3 0-.7-.1-1.5-.3-2.2-.4-1.9-1.7-3.1-3.6-3.5-.9-.2-1.8-.3-2.8-.3h-4.5c-.2 0-.3.1-.3.3v.5c.2 2.4.2 4.8.2 7.1zm64.6 82.8h8.9c.9 0 1.7.1 2.6.2 1 .1 2.1.3 3 .6 2.2.6 4.2 1.5 5.8 3.2 1.3 1.3 2.1 2.9 2.4 4.7.2 1.4.2 2.8-.1 4.2-.2.9-.7 1.8-1.3 2.5-1.2 1.6-2.9 2.5-4.6 3.2-1.3.5-2.7.8-4.1 1.1-.2.1-.5 0-.7 0-.1 0-.2 0-.2.2 0 .1.1.2.2.2.4 0 .8.1 1.2.1 2 .3 3.8 1.2 5.1 2.7 1.1 1.2 1.9 2.6 2.6 4 .4.9.8 1.7 1.2 2.6l2.1 4.5c.2.4.4.6.8.7.8.3 1.7.6 2.5.8.3.1.5.2.5.6v1.4c0 .3-.1.4-.4.4h-9.4c-1.3 0-2-.5-2.5-1.8-1-2.9-2-5.9-3.1-8.7-.5-1.4-1.1-2.8-1.9-4.1-1-1.6-2.5-2.2-4.3-2.3h-2.9c-.3 0-.5.1-.5.5v12.5c0 .7 0 .7.7.9 1.2.3 2.4.5 3.6.8.1 0 .2.1.4.1.3 0 .3.2.3.4v1.4c0 .3-.1.4-.4.4h-16.8-.1c-.6 0-.6 0-.6-.6v-1c0-.5 0-.5.5-.6 1.3-.3 2.5-.5 3.8-.8.1 0 .2-.1.3-.1.2-.1.4-.2.4-.5v-.4-29.8-.4c0-.3-.1-.4-.3-.5-.8-.2-1.7-.4-2.5-.6-.5-.1-1.1-.2-1.6-.3-.3-.1-.5-.2-.5-.6v-1.2c0-.3.1-.5.4-.5h.5c2.9-.1 5.9-.1 9-.1zm3 10.6v7.3c0 .6 0 .6.4.6 2.4 0 4.7.2 7-.4 1.8-.4 3-1.4 3.6-3.1.4-1.4.4-2.8.5-4.2 0-.6-.1-1.2-.1-1.7 0-1-.2-1.9-.4-2.8-.5-1.6-1.5-2.7-3.2-3.1-1.1-.3-2.2-.4-3.4-.4h-3.9c-.6 0-.6 0-.6.6v.4c.1 2.2.1 4.5.1 6.8zm135.7-78.1c.1-.7.1-1.4 0-2.1 0-.1-.1-.3-.1-.4.1-1.3-.1-2.6-.1-4 0-1.3-.1-2.6-.2-4 0-.9 0-1.9-.1-2.8-.1-1.1 0-2.1-.1-3.2-.1-1 0-1.9-.1-2.8-.1-1-.1-1.9-.1-2.9 0-.5-.1-.7-.7-.8-1.5-.3-2.9-.7-4.4-.9-.3 0-.4-.2-.4-.4v-1.4c0-.3.1-.3.4-.3h13.1c.2 0 .3.1.3.4v1.4c0 .2-.1.4-.3.4-1.1.3-2.2.6-3.3.8-.8.2-.8.2-.8.9v33.3c0 1.1.1 1-1 1h-1.8c-.4 0-.7-.1-.9-.4-.9-1.3-1.9-2.6-2.8-3.9-1.2-1.6-2.3-3.2-3.5-4.7-1.2-1.7-2.4-3.4-3.7-5-1.5-2.1-3.1-4.1-4.6-6.2l-3.9-5.4c-1.1-1.5-2.2-2.9-3.3-4.4-.6-.8-1.1-1.6-1.7-2.4-.1-.1-.1-.3-.3-.2 0 .4-.1.8 0 1.2.2.8.1 1.6.1 2.5.1 1.3.1 2.7.2 4 .1.9 0 1.8.1 2.7.1 1.1 0 2.3.1 3.4.1 1 0 1.9.1 2.9.1 1.1 0 2.3.1 3.4.1.9 0 1.8.1 2.7.1 1.3.1 2.6.1 3.9 0 .7.1 1.4.1 2.1 0 .3.1.5.4.6.9.2 1.9.4 2.8.6.7.1 1.3.3 2 .4.3.1.4.2.4.5v1.3c0 .3-.1.5-.4.4h-13.7c-.3 0-.4-.1-.4-.4v-1.3c0-.4.1-.5.5-.6.7-.1 1.3-.3 2-.4s1.3-.3 2-.4c.4-.1.5-.3.5-.6v-1.7-28.3c0-.9.2-.8-.8-1.1-1.1-.3-2.3-.6-3.4-.8-.7-.1-.7-.2-.7-.9v-1c0-.3.1-.4.4-.4h12.4c.5 0 .8.2 1 .5.8 1.1 1.6 2.3 2.4 3.4 1.5 2.1 3 4.1 4.5 6.2 1.3 1.9 2.7 3.7 4 5.6 1.6 2.3 3.3 4.5 4.9 6.8.7 1 1.4 1.9 2.1 2.9.2 0 .3.2.5.3zm27.3 12h-15.5c-.8 0-.8 0-.8-.8v-.9c0-.5 0-.5.5-.6 1.3-.3 2.5-.5 3.8-.8.1 0 .3-.1.4-.1.2 0 .2-.2.2-.3v-.5-29.8-.4c0-.3-.1-.4-.4-.5-1.3-.3-2.7-.6-4-.9-.5-.1-.5-.1-.5-.6v-1.2c0-.3.1-.4.4-.4h29.8c.9 0 .9.1.9 1 0 .8.1 1.6.2 2.4.1.5.1 1.1.1 1.6.1 1.4.4 2.9.4 4.3 0 .4.1.9.1 1.4 0 .3-.1.4-.4.4h-.1c-1.1 0-1.1 0-1.7-.9-1.4-2.2-2.9-4.4-4.2-6.7-.4-.7-1.1-.9-1.8-.9-1.1 0-2.1-.1-3.2-.2-.9-.1-1.8 0-2.6-.2h-.1c-1.4 0-2.8-.2-4.3-.1-.6 0-.6 0-.6.6v14.1c0 .6 0 .6.6.6 1.1 0 2.2-.1 3.4-.2.5-.1 1 0 1.5 0 .6 0 .7-.1.9-.6.6-1.6 1.3-3.1 1.9-4.7.1-.3.2-.4.6-.4h1.2c.2 0 .3.1.3.3v13.2c0 .3-.1.4-.4.4h-1.2c-.2 0-.4-.1-.5-.3-.6-1.4-1.3-2.8-1.8-4.3-.2-.5-.6-.7-1-.7-1 0-1.9-.2-2.9-.1-.7 0-1.3-.2-1.9-.1-.6 0-.6 0-.6.6v15.1c0 .3.1.4.4.3.5-.2 1.1-.1 1.6-.1 1.9 0 3.8-.1 5.6-.2 1.1 0 2.3 0 3.4-.1.7-.1 1.3-.1 2-.1.3 0 .4-.2.6-.4.3-.6.7-1.1 1-1.7.8-1.4 1.5-2.7 2.3-4.1.7-1.2 1.4-2.4 2-3.6.2-.4.5-.6 1-.6h.8c.3 0 .4.1.4.4-.1.9-.3 1.8-.4 2.8-.1.6 0 1.2-.2 1.7-.2.9-.2 1.9-.4 2.8-.1.9-.1 1.9-.3 2.8-.1.7 0 1.5-.2 2.2-.1.3-.2.4-.5.4h-.5c-5-.3-10.1-.3-15.3-.3zm-263.2-37.9h15.2c.3 0 .4.1.5.4.1 1.2.2 2.5.4 3.7.1 1.1.2 2.1.3 3.2l.3 3.3c0 .4.1.8.1 1.2 0 .6 0 .6-.6.6-1.3 0-1 .2-1.7-.9-1-1.5-1.9-3.1-2.9-4.6-.7-1.1-1.4-2.2-2-3.3-.3-.4-.5-.8-1.1-.8-.5 0-1.1 0-1.6-.1-1-.2-2 0-3-.2h-.2c-1.2.1-2.3-.1-3.4-.2-.7 0-1.4-.1-2.1-.1-.6 0-.6 0-.6.6v14.6c0 .6 0 .6.6.6 1 0 2.1-.1 3.1-.2.7-.1 1.4-.1 2.1-.2.4 0 .6-.2.7-.5.6-1.7 1.3-3.4 1.9-5.1.1-.2.1-.3.3-.3h1.3c.3 0 .3.1.3.4v13.8c0 .3-.1.4-.4.4h-.1c-1.2 0-1.2 0-1.7-1.1-.6-1.4-1.1-2.7-1.7-4.1-.1-.3-.3-.4-.6-.4-1.3-.1-2.7-.2-4-.3-.5 0-1-.1-1.5-.1-.3 0-.5.1-.4.4v13.6c0 .4.1.6.5.6.9.2 1.7.3 2.6.5.6.1 1.2.3 1.8.4.3.1.4.2.4.5v1.3c0 .3-.1.4-.4.4h-17.2c-.9 0-.8 0-.8-.8v-.8c0-.6 0-.6.5-.7.8-.2 1.7-.4 2.5-.5.5-.1.9-.2 1.4-.3.3-.1.4-.2.4-.5v-.4-29.6-.5c0-.3-.2-.5-.5-.5-1.2-.5-2.4-.9-3.7-1.1-.5-.1-.6-.2-.6-.6v-1.3c0-.3.1-.4.4-.4zm28.7 93.4h14.9c.7 0 .7 0 .7.7 0 .8.1 1.6.2 2.4.1.5.1 1.1.1 1.6 0 1.2.2 2.3.3 3.5.1 1.1.1 2.2.3 3.3v.2c0 .6 0 .6-.6.7-.8.1-1.2-.2-1.6-.9-1.1-1.9-2.2-3.7-3.3-5.5-.6-1-1.2-1.9-1.8-2.9-.3-.4-.7-.6-1.2-.5-1 0-2.1-.1-3.1-.2-1.1-.1-2.1 0-3.2-.2h-.1c-1.3.1-2.6-.2-3.9-.1-.5 0-.5 0-.5.6v14.8c0 .3.1.4.4.3.4 0 .8.1 1.2-.1.1 0 .2-.1.3 0 .9.1 1.8-.2 2.7-.1.5 0 1-.1 1.5-.2.3 0 .5-.2.6-.5.5-1.3 1-2.5 1.5-3.8 0-.1.1-.2.1-.3.1-.4.2-.9.6-1.1.4-.3 1-.1 1.5-.1.2 0 .3.1.3.3v13.8c0 .5 0 .5-.5.5h-.9c-.4.1-.6-.2-.8-.5-.6-1.4-1.2-2.9-1.7-4.3-.1-.3-.3-.5-.6-.5-.5-.1-1-.2-1.5-.2-1 0-2.1-.1-3.1-.2-1.4-.2-1.5-.1-1.5 1.2v12.6c0 .5 0 .6.5.7.7.1 1.4.3 2.1.4.8.2 1.6.3 2.3.5.3.1.4.2.4.5v1.4c0 .3-.1.4-.4.4h-17c-.9 0-.8.1-.8-.8v-1c0-.3.1-.5.4-.5 1.2-.3 2.5-.5 3.7-.8.6-.1.7-.1.7-.8v-30.1c0-.7 0-.6-.7-.8-1.2-.3-2.5-.6-3.7-.9-.4-.1-.5-.2-.4-.6v-1.2c0-.3.1-.5.5-.4h.5c4.8-.3 9.7-.3 14.6-.3zm140.9 37.9h-8.1c-.3 0-.5-.1-.4-.5 0-.5-.1-1.1.1-1.5.2-.5.9-.3 1.4-.4.9-.3 1.8-.4 2.8-.6.5-.1.5-.2.4-.7-.3-.7-.5-1.5-.8-2.2-.9-2.3-1.8-4.6-2.6-6.8-.3-.9-.3-.9-1.3-.9h-10.4c-.8 0-.6-.1-.9.6-.6 1.7-1.2 3.3-1.8 5-.5 1.4-1 2.8-1.6 4.3-.2.6-.2.6.4.7 1.2.3 2.5.6 3.7.8.3.1.4.2.4.4v1.4c0 .3-.1.3-.4.3h-12.3c-.2 0-.4-.1-.3-.4v-1.5c0-.2.1-.3.3-.4 1.1-.3 2.2-.6 3.3-.8.4-.1.6-.3.7-.6.3-.8.7-1.7 1-2.5.8-1.9 1.5-3.8 2.3-5.6l1.5-3.6c.4-1 .8-2 1.3-3 .4-.9.8-1.9 1.2-2.8.5-1.2 1-2.5 1.5-3.7.4-1 .8-2 1.3-3.1.4-1 .8-1.9 1.2-2.9.5-1.3 1-2.5 1.5-3.8.4-.9.8-1.9 1.2-2.8.2-.4.4-.6.8-.6h3c.3 0 .5.1.6.4s.3.6.4.9c.9 2.5 2 4.9 2.9 7.4.7 1.8 1.5 3.6 2.2 5.4.4 1.1.9 2.2 1.3 3.3.6 1.7 1.4 3.4 2 5.1.8 2.1 1.7 4.2 2.5 6.3l2.1 5.1s0 .1.1.1c.3 1.1.2.9 1.3 1.3l2.1.6c.6.2.6.2.6.8v.9c0 .5 0 .6-.5.6zm-13.7-16.3h4.4c.5 0 .5-.1.4-.5-.3-.7-.6-1.5-.9-2.2-.4-1.1-.9-2.3-1.3-3.4-.8-2.1-1.6-4.3-2.4-6.4-.1-.1-.1-.4-.3-.3-.2 0-.1.2-.2.4v.1c-.5 1.5-1 3-1.6 4.5-.4.9-.7 1.9-1 2.8-.6 1.6-1.1 3.1-1.7 4.7-.2.5-.1.6.4.6 1.3-.3 2.8-.3 4.2-.3zm78.5 16.3h-15c-.3 0-.4-.1-.4-.4v-1.4c0-.3.1-.4.4-.5.4-.1.9-.2 1.3-.3.9-.1 1.7-.4 2.6-.6.5-.1.5-.2.5-.7v-4.9-24.9-.5c0-.3-.1-.5-.4-.6-.8-.2-1.6-.4-2.4-.5-.5-.1-1.1-.3-1.6-.4-.3 0-.4-.2-.4-.4v-1.4c0-.3.2-.5.5-.4h17.3c.6 0 .6 0 .6.6v1c0 .5 0 .5-.5.6-1.5.3-3 .6-4.4.9-.3.1-.4.2-.4.5v31.3c0 .9-.1.9.8.8 1.4-.1 2.9-.2 4.3-.3l3.6-.3c.7 0 1.4-.1 2.1-.1.2 0 .4-.1.5-.3.3-.5.6-.9.8-1.4 1-1.8 2.1-3.6 3.1-5.4.6-1 1.2-2.1 1.8-3.2.2-.3.4-.5.8-.5h.9c.3 0 .4.1.4.4v.6l-.3 2.4c-.1.7-.2 1.4-.3 2.2-.1.9-.2 1.7-.3 2.6-.2 1.1-.2 2.3-.4 3.4-.1.5-.2 1-.2 1.5 0 .3-.1.4-.4.4h-.5c-4.7.2-9.6.2-14.4.2zm-47.1-19v-14.8-.5c0-.3-.1-.4-.4-.5-1.2-.3-2.5-.5-3.7-.8-.2 0-.3-.1-.5-.1-.2-.1-.3-.2-.3-.4v-1.4c0-.2.1-.4.4-.3h17.2c.9 0 .8 0 .8.8v.5c0 1 0 .8-.9 1.1-1.3.3-2.6.5-3.9.8-.6.1-.6.1-.6.7v31.2c0 .6 0 .7.7.6l4.5-.3c1.2-.1 2.5-.2 3.7-.3.6-.1 1.3-.1 1.9-.1.3 0 .5-.2.7-.4.5-.8.9-1.6 1.4-2.4l2.1-3.6c.7-1.3 1.5-2.6 2.2-3.9.2-.3.4-.5.8-.4h1c.3 0 .4.1.4.4-.1.7-.2 1.5-.3 2.2s-.1 1.5-.2 2.2c-.2.8-.2 1.6-.3 2.4-.1.6-.1 1.2-.2 1.7-.2 1.5-.3 3-.5 4.4 0 .2-.1.3-.3.3h-29.7c-.8 0-.8 0-.8-.8v-.9c0-.4.1-.6.5-.6.9-.2 1.7-.4 2.6-.6.5-.1 1-.3 1.6-.4.2-.1.3-.2.3-.4v-.5c-.2-5-.2-9.9-.2-14.9zm13.6-51c0-1 .9-2.2 1.8-2.5.3-.1.6 0 .8.2s.2.4.1.7c-.4.9-.9 1.8-1.7 2.5-.2.2-.5.2-.7.1-.3-.1-.2-.3-.2-.5-.1-.2-.1-.3-.1-.5zm0 7.6c-.2-.1-.4-.1-.6-.1-.3 0-.6 0-.8-.1-.6-.2-.7-.3-.4-.9l1.2-2.4c.2-.4.3-.8.4-1.2.2-.6-.2-1-.8-1-.2 0-.4 0-.6.1-.6.3-1.3.6-1.9 1-1.4 1-2.9 1.9-4.3 2.9-.3.2-.5.3-.8.5-.1 0-.2.1-.2 0v-.2c.2-.4.4-.7.6-1.1s.5-.8.7-1.2c.3-.5.2-1-.2-1.3s-1.1-.3-1.4 0c-.2.2-.5.4-.7.7-.7.9-1.4 1.9-2.2 2.8-.2.3-.4.6-.9.7.1-.2.1-.2.1-.3.3-.7.6-1.3.8-2 .2-.4.3-.9-.1-1.3s-.8-.3-1.3-.1c-1.1.4-2.1 1.1-3.1 1.8-1.3.9-2.5 1.8-3.8 2.6-.4.3-.8.5-1.4.6.1-.3.1-.5.2-.7.3-.5.8-1 1.3-1.4 1.1-.9 2.2-1.9 3.3-2.9.6-.5 1-1.2 1.6-1.7.8-.8 1.5-1.8 2-2.8.3-.6.5-1.3.4-2-.1-.8-.4-1.3-1.2-1.2-.5 0-.9.1-1.3.3-1.3.6-2.4 1.6-3.3 2.8-1.4 2-2.7 4-3.8 6.2-.1.3-.4.4-.6.5l-1.2.3c-2 .7-3.8 1.7-5.6 2.7-.3.2-.5.4-.9.4.2-.5.1-.9.1-1.3 0-.2 0-.3-.1-.5-.5-.6-1-.8-1.7-.4-.5.2-.9.5-1.3.8s-.9.5-1.3.8c-.2-.3-.1-.5-.1-.8 0-.5-.2-.8-.6-1s-.8-.2-1.2.1c-.3.2-.7.3-1 .5-.3.1-.5.2-.8-.1-.4-.4-.8-.4-1.3-.2-.9.4-1.9.6-2.8 1.1-.1.1-.2.1-.4.1-.4.1-.5-.1-.4-.4.2-.6.4-1.3.6-1.9.5-1.6 1-3.2 1.6-4.7.7-1.8 1.3-3.6 2.6-5 .3-.3.3-.7.2-1-.2-.4-.8-.7-1.2-.7-.3.1-.7.2-1 .3-1.7.9-3.1 2.1-4.4 3.4-1.7 1.6-3.3 3.3-4.9 5-.7.8-1.4 1.6-2.2 2.4-.2.1-.2.3-.3.5-.2.4-.5.7-1 .9 0-.4.1-.7.2-.9.4-.8.6-1.7.9-2.6.3-.8.4-1.6.4-2.4s-.5-1.2-1.3-1.2c-.7 0-1.2.3-1.7.6-1.5.9-2.9 2.1-4.2 3.4-.9.9-1.9 1.6-2.5 2.8-.1.1-.2.2-.3.2s-.1-.2-.1-.3v-.5c.2-.7.2-1.4.2-2.1.1-1.1.2-2.3.2-3.4v-6.5c0-.8-.1-1.5-.3-2.2-.5-1.5-1.4-2.7-3-3.2-1.2-.4-2.4-.4-3.7-.2-1.5.2-3 .6-4.3 1.3-.5.3-1 .2-1.5 0-1.2-.6-2.5-.9-3.8-1.2-.9-.2-1.8-.3-2.7-.4-.8-.1-1.6-.2-2.4-.2-1.5 0-3.1 0-4.6.1-1.2.1-2.3.2-3.5.2h-.1l-2.7.3c-.7.1-1.3.1-2 .1-1.4.2-2.7.4-4.1.6-1.8.2-3.5.6-5.3 1-2.7.6-5.4 1.3-8 2.3-2.6.9-5.1 2-7.6 3.2-1.6.8-3.2 1.8-4.7 2.8-1.1.8-2.2 1.6-3.2 2.5s-2 1.9-2.9 3c-1 1.3-1.8 2.7-2.3 4.2-.4 1.2-.8 2.4-.7 3.7v1.2c0 1.9.9 3.3 2.2 4.5 1.2 1 2.6 1.6 4.1 1.9.3.1.6.1.9.3 0 .1 0 .1-.1.1l-.9.9c-.3.3-.6.5-.7.8-.3.7-.2 1.4.7 1.3.5 0 1-.2 1.3-.6.6-.7 1.4-1.3 2.1-2 .2-.2.4-.3.6-.3.5 0 .9-.1 1.4-.1 1.3 0 2.6-.1 3.9-.4 2.2-.4 4.2-1.1 6.1-2.2 1.2-.7 2.3-1.6 3-2.8.5-.9.6-1.9.3-2.8-.3-1.2-1.2-2-2.5-2.1-1.4-.2-2.7 0-4 .6-2.2 1-4 2.4-5.7 4-1.2 1.1-2.3 2.2-3.3 3.5-.3.3-.6.5-1 .4-1.6-.2-3-.7-4.2-1.8-1.2-1.2-1.7-2.6-1.8-4.2 0-1.7.4-3.2 1.1-4.7 1.1-2.4 2.9-4.3 4.9-5.9 1.7-1.4 3.5-2.5 5.5-3.5 2.9-1.5 5.9-2.6 9-3.6 2.7-.9 5.4-1.7 8.2-2.3 1.3-.3 2.6-.6 4-.8.4-.1.8-.3 1.3-.3 1.2-.1 2.4-.4 3.6-.5.8-.1 1.6-.3 2.4-.4 1-.1 1.9-.2 2.9-.3 1.1-.1 2.2-.2 3.4-.2h2.5c.7 0 1.4.1 2.1.2.9.1 1.8.3 2.7.5s1.8.4 2.6.8c.1 0 .2 0 .2.2s-.1.2-.2.2l-1.2.6c-1.6.9-3.2 1.9-4.6 3-.8.6-1.6 1.2-2.3 2-.2.2-.4.4-.4.7s.1.6.4.7c.4.1.8.1 1.1-.1 1.3-.8 2.6-1.7 3.9-2.5 1.5-1 2.9-2 4.5-2.9 1.2-.7 1-.5 1.7.2l.1.1c.8 1 .8 1.7 0 2.7-1.1 1.3-2.5 2.2-4 3-1.8.9-3.8 1.5-5.7 2.2-1.5.5-3 .9-4.5 1.4-2.7.8-5.4 1.4-8.1 2.2-1.3.4-2.6.8-3.9 1.3-1.4.6-2.8 1.2-4.1 2-1.2.7-2.4 1.4-3.4 2.5-.8.8-1.3 1.8-1.8 2.8-.2.4-.2.9-.1 1.3.1 1 .9 1.7 1.8 1.8 1.4.1 2.9.1 4.3-.3.4-.1.5-.1.7.3.3.6.9.9 1.6.8.5-.1.9-.3 1.3-.6 1.2-1 2.6-1.8 4-2.4.4-.2.5-.2.8.2.6.8 1 .9 2 .5.6-.2 1-.5 1.5-.8s.5-.3.8.1.7.5 1.2.4c.3 0 .6-.1.8-.2.6-.2 1.1-.5 1.7-.8.3-.1.5-.2.9-.1.4.2.9.2 1.3 0 .2-.1.3-.1.5 0 0 .1-.1.2-.1.3s-.1.1-.1.2c-.4.7 0 1.4.9 1.4.3 0 .5-.1.7-.2 1.4-.7 2.6-1.7 3.8-2.7.8-.7 1.6-1.4 2.3-2.1.1-.1.2-.1.3 0 .1.2.1.3 0 .5-.1.3-.1.6-.1.8.1 1.2.8 2 2 2 .9 0 1.6-.3 2.4-.6.4-.2.8-.5 1.1-.8s.3-.5 0-.8c-.2-.2-.4-.3-.7-.2-.5.2-1.1.4-1.6.5-.7.2-1.1-.1-1.1-.8 0-.6.1-1.1.3-1.7.1-.2.2-.3.4-.3s.5-.1.7-.1c1.2 0 2.5 0 3.7-.1.5-.1 1.1-.2 1.6-.2.4 0 .7-.2.9-.5.4-.5.1-1.2-.5-1.2-.4 0-.8-.1-1.2 0-1 .3-2.1.2-3.2.2-.1 0-.2 0-.3-.1 0-.2.3-.3.4-.6.1-.2.3-.4.4-.6.2-.3.4-.6.4-1 0-.6-.3-.9-.9-.7-.3.1-.7.3-.9.5l-2.1 1.8c-.3.3-.7.5-1.1.7-1 .4-2.1.2-3.2.4-.8.1-1.6 0-2.4 0-.6 0-.9.4-.9.9 0 .4.5.8.9.8h2.8c.1 0 .2 0 .3.1 0 0 0 .1-.1.2-.7.4-1.3.9-2 1.4-.2.2-.4.2-.6-.1-.2-.2-.4-.2-.7-.1-.5.2-1 .4-1.5.7-.2.1-.4.3-.6.2-.1-.2.1-.3.1-.4.3-.4.5-.9.4-1.4 0-.5-.5-1.1-1.1-1.1-1.1 0-2.4 1.1-2.5 2.2 0 .3-.1.5-.3.8-.4.4-.8.7-1.3 1-.1.1-.2.1-.3 0s-.1-.2 0-.2c.1-.3.2-.6.2-.9.1-.6-.1-.9-.5-1.1-.5-.2-1 0-1.3.4-.5.6-1.1 1.1-1.6 1.7h-.2c-.1-.1 0-.2.1-.3.4-.6.9-1.2 1.3-1.8.7-.9 1.2-1.8 1.7-2.8.2-.4.2-.9.2-1.4 0-.4-.2-.5-.6-.6-.4 0-.8.1-1.1.4-1 .9-1.9 2-2.7 3-1 1.2-2.1 2.3-3.2 3.4-.2.2-.4.3-.7.4-.4.1-.4.1-.5-.3-.1-.6-.5-.9-1.1-.9s-1.1.2-1.6.5-1 .7-1.6 1c-1.2.8-2.5 1.3-4 1.2-.9-.1-1.2-.6-.8-1.4s.9-1.5 1.6-2.1c1.8-1.5 3.8-2.6 5.9-3.4 1.5-.6 3.1-1.1 4.7-1.6 1.6-.4 3.3-.9 4.9-1.3 1.8-.5 3.5-1 5.3-1.5 1.6-.5 3.2-1.1 4.9-1.7s3.3-1.3 4.8-2.4c1.1-.8 2.2-1.8 2.9-3 .6-.9.8-1.8.4-2.8-.2-.6-.5-1.1-.8-1.6-.2-.4-.2-.5.2-.6 1.5-.5 3-1 4.6-.9.9 0 1.7.4 2.2 1.2.7.9.8 2.1.9 3.1.2 2.3-.2 4.7-.1 7v.1c-.2 1.3-.1 2.6-.3 3.9-.1.6-.1 1.2-.2 1.8-.1 1.1-.2 2.1-.3 3.2-.1.7-.2 1.4-.2 2.1-.1.4-.1.8.1 1.2s.7.6 1.2.5c.4-.1.6-.4.7-.8.1-.3.1-.7.2-1 .7-1.9 1.9-3.5 3.2-4.9.9-1.1 1.9-2.1 3-2.9.5-.4 1-.9 1.7-1.2.2.2.1.4.1.6-.6 1.7-1.1 3.5-1.7 5.2-.5 1.2-.9 2.4-1.4 3.5-.2.4-.3.8-.3 1.3 0 .6.6 1 1.2.8.3-.1.5-.3.7-.6 1.3-1.9 2.7-3.7 4.2-5.4 1.3-1.5 2.7-3 4.1-4.4 1.5-1.5 3-3.1 4.6-4.5l.2-.2c.1-.1.2 0 .2.1s0 .2-.1.2c-.7 1.6-1.3 3.3-1.9 5-1 2.8-1.8 5.5-2.7 8.3-.4 1.3-.7 2.5-.6 3.9v.5c-.1.6.3 1.3.8 1.4s1-.3 1.2-.9v-.2c-.1-1 .3-2 .3-3 0-.5.1-.9.3-1.4.2-.3.3-.7.4-1.1.1-.2.1-.4.2-.5.2.1.2.3.2.4.3.6.8.8 1.4.7.5-.1.9-.3 1.3-.5.8-.4 1.3-1.1 1.8-1.8.4-.6 1-.9 1.6-1.2.1-.1.2-.1.4 0 .1.1 0 .2 0 .3-.3.6-.4 1.3-.6 2-.1.5 0 .9.3 1.2.3.4 1 .5 1.4.1.7-.7 1.4-1.3 2-2 .4-.4.8-.7 1.3-1.1.2-.1.4-.5.6-.3.3.1.1.5.1.7 0 .7.4 1 1 1 .7 0 1.4-.2 2-.5.4-.2.7-.2 1 .1.2.2.5.3.8.4 1 .1 1.9.1 2.7-.5.4-.3.9-.6 1.4-1 .3-.2.4-.2.6.1.3.5.7.8 1.4.7.4 0 .7-.1 1-.2.7-.3 1.4-.6 2-.9.3-.2.5-.1.7.1s.4.5.7.5c.7.1 1.3.1 1.9-.3l1.2-.9c.4-.4.4-.4.8 0 .3.4.8.5 1.3.3l.6-.3c.2-.2.4-.3.7-.5.5 1 .9 1.1 1.9.7.7-.3 1.3-.6 1.9-1 1.4-.9 2.9-1.8 4.3-2.7.1-.1.2-.2.4-.1-.1.3-.3.5-.4.7-.5.7-.9 1.4-.8 2.3.1.6.2.9.8 1.1.9.3 1.9.2 2.8.1.3 0 .5-.1.7-.2.3-.2.6-.3.6-.7-.1-.6-.4-.8-.6-.9zm-18.6-6.6c.7-1 1.5-2 2.4-2.9.3-.3.6-.5.9-.6.1-.1.2-.1.4 0 .1.1 0 .2 0 .3-.1.3-.3.5-.5.8-1.2 1.6-2.6 3-4 4.4 0 0-.1 0-.2.1l-.1-.1c.3-.7.7-1.4 1.1-2zm-104.4 16.3c.9-.9 1.8-1.6 2.8-2.5 1.4-1.2 2.8-2.4 4.5-3.1.9-.4 1.8-.6 2.8-.3.9.3 1 .8.6 1.7-.5.9-1.2 1.5-2 2.1-1.3.9-2.8 1.5-4.3 2-1.2.4-2.5.6-3.7.7-.3 0-.7.2-1.1.1-.1-.5.2-.6.4-.7zm80-6.9c.5-1 1.3-1.6 2.3-2-.5 1-1.3 1.6-2.3 2zm15.7-1.3c.5-.8 1.7-1.6 2.7-1.8-.4.6-1.8 1.5-2.7 1.8zm10.6-1.4c.6-.9 1.4-1.5 2.2-2.2-.2.6-1.5 1.9-2.2 2.2z" fill="#fbf6e6"/></svg>