<svg id="Layer_1" data-name="Layer 1" xmlns="http://www.w3.org/2000/svg" viewBox="0 0 193.9707 36.9346"><defs><style>.cls-1{fill:#ab915e;}.cls-2{fill:#231f20;}</style></defs><polygon class="cls-1" points="19.069 1.313 17.883 1.313 16.407 1.797 19.635 12.532 19.689 12.532 19.908 11.734 17.105 2.416 19.069 1.77 19.069 1.313"/><polygon class="cls-1" points="25.715 1.313 24.37 2.039 18.855 17.987 18.391 17.987 18.612 18.605 19.553 18.605 25.068 2.659 26.709 1.77 26.709 1.313 25.715 1.313"/><polygon class="cls-1" points="13.637 6.048 13.582 6.048 8.875 17.987 8.436 17.987 8.631 18.605 9.573 18.605 14.059 7.228 13.637 6.048"/><polygon class="cls-1" points="9.654 1.313 8.495 1.313 7.1 1.797 9.871 12.666 9.924 12.666 10.214 11.893 7.798 2.416 9.654 1.77 9.654 1.313"/><path class="cls-1" d="M243.14109,394.9111c-.9809-1.1382-1.5503-3.2075-1.5503-6.5981,0-5.8125,1.47221-7.7764,3.8491-7.7764a3.248,3.248,0,0,1,1.8448.5528,3.28062,3.28062,0,0,0-2.543-1.17c-2.3765,0-3.8491,1.9629-3.8491,7.7754C240.89259,391.8237,241.73539,393.9956,243.14109,394.9111Z" transform="translate(-209.12789 -378.1045)"/><path class="cls-1" d="M250.89889,381.2896a8.93878,8.93878,0,0,1,2.3418,6.4052c0,4.6758-2.9966,8.6236-8.3696,8.6236a8.28465,8.28465,0,0,1-5.1592-1.5772,7.94856,7.94856,0,0,0,5.8569,2.1943c5.3736,0,8.37021-3.9467,8.37021-8.6225A8.57737,8.57737,0,0,0,250.89889,381.2896Z" transform="translate(-209.12789 -378.1045)"/><path class="cls-1" d="M262.82279,394.9111c-.9805-1.1391-1.5499-3.2075-1.5499-6.5981,0-5.8125,1.4727-7.7764,3.8497-7.7764a3.24337,3.24337,0,0,1,1.8437.5528,3.27524,3.27524,0,0,0-2.542-1.17c-2.3769,0-3.8491,1.9629-3.8491,7.7754C260.57519,391.8228,261.41749,393.9946,262.82279,394.9111Z" transform="translate(-209.12789 -378.1045)"/><path class="cls-1" d="M270.58149,381.2896a8.93878,8.93878,0,0,1,2.3418,6.4052c0,4.6758-2.9965,8.6236-8.3701,8.6236a8.27874,8.27874,0,0,1-5.1596-1.5782,7.94733,7.94733,0,0,0,5.8579,2.1953c5.373,0,8.3701-3.9467,8.3701-8.6225A8.57736,8.57736,0,0,0,270.58149,381.2896Z" transform="translate(-209.12789 -378.1045)"/><path class="cls-1" d="M282.144,381.0015l1.29149.0781a5.96356,5.96356,0,0,1,3.1294.9971,5.48091,5.48091,0,0,0-3.8271-1.6153l-1.292-.0771V395l.69821-.0381Z" transform="translate(-209.12789 -378.1045)"/><path class="cls-1" d="M290.27589,381.9683a7.89457,7.89457,0,0,1,2.2265,5.7265c0,4.6758-3.5649,8.2349-9.4033,8.2349h-6.4262l-.6514.1797v.4394h7.7759c5.8383,0,9.4033-3.56,9.4033-8.2358A7.74781,7.74781,0,0,0,290.27589,381.9683Z" transform="translate(-209.12789 -378.1045)"/><path class="cls-1" d="M309.834,383.0972c0,2.04-1.44731,3.4609-4.64991,4.0293v.1289a9.27931,9.27931,0,0,1,1.62991.2793c2.54539-.666,3.71729-1.9922,3.71729-3.8203a2.9704,2.9704,0,0,0-1.4122-2.5332A2.86182,2.86182,0,0,1,309.834,383.0972Z" transform="translate(-209.12789 -378.1045)"/><polygon class="cls-1" points="88.539 2.434 86.989 2.007 86.989 2.432 88.539 2.86 88.539 2.434"/><path class="cls-1" d="M302.23969,388.4165h1.1368a3.87769,3.87769,0,0,1,2.0776.542,3.48409,3.48409,0,0,0-2.7759-1.1602h-1.1367v7.1246c.2144.0449.4478.083.6982.1142Z" transform="translate(-209.12789 -378.1045)"/><path class="cls-1" d="M302.91059,380.3589l-1.3691-.0264v6.6397l.6982-.0274v-5.9941l1.3692.0254a3.4259,3.4259,0,0,1,1.70511.4414A3.01965,3.01965,0,0,0,302.91059,380.3589Z" transform="translate(-209.12789 -378.1045)"/><path class="cls-1" d="M309.58789,389.0815a3.3777,3.3777,0,0,1,.918,2.2559c0,2.4277-1.7305,4.5923-6.1226,4.5923h-7.6147l-.6514.1797v.4394h8.9639c4.3916,0,6.1191-2.1645,6.1191-4.5932A3.55147,3.55147,0,0,0,309.58789,389.0815Z" transform="translate(-209.12789 -378.1045)"/><path class="cls-1" d="M319.72359,388.521h-.2832v6.3501l.6973.1953v-5.9263h.2832a3.95871,3.95871,0,0,1,1.9355.3721A2.91887,2.91887,0,0,0,319.72359,388.521Z" transform="translate(-209.12789 -378.1045)"/><path class="cls-1" d="M321.042,380.4351l-1.60161-.0508v7.2588l.6973-.0225v-6.6191l1.6016.0527a3.67907,3.67907,0,0,1,1.875.5439A3.43957,3.43957,0,0,0,321.042,380.4351Z" transform="translate(-209.12789 -378.1045)"/><path class="cls-1" d="M326.52829,389.4409a4.83538,4.83538,0,0,1,.8946,1.6387,10.60574,10.60574,0,0,0,1.5742,3.3823,3.56769,3.56769,0,0,0,.7402.6563c-.0137-.0147-.02729-.0264-.041-.042a10.57,10.57,0,0,1-1.5762-3.3794A4.26651,4.26651,0,0,0,326.52829,389.4409Z" transform="translate(-209.12789 -378.1045)"/><path class="cls-1" d="M330.49509,395.7725v.1572h-3.125a3.51277,3.51277,0,0,1-1.8125-.3838,2.80792,2.80792,0,0,0,2.5098,1.0029h3.1269v-.4394A3.46088,3.46088,0,0,1,330.49509,395.7725Z" transform="translate(-209.12789 -378.1045)"/><path class="cls-1" d="M328.40329,383.5093c0,1.9638-1.4199,3.7978-4.8828,4.3398v.1299a6.59265,6.59265,0,0,1,1.3477.3477c2.9746-.6631,4.2343-2.3682,4.2343-4.1983a3.65293,3.65293,0,0,0-1.6269-3.0058A3.58578,3.58578,0,0,1,328.40329,383.5093Z" transform="translate(-209.12789 -378.1045)"/><polygon class="cls-1" points="112.533 17.825 105.539 17.825 104.887 18.005 104.887 18.444 113.23 18.444 113.23 18.005 112.533 17.81 112.533 17.825"/><polygon class="cls-1" points="130.824 1.994 129.244 2.434 129.244 16.767 129.943 16.962 129.943 3.053 132.164 2.432 132.164 1.994 130.824 1.994"/><polygon class="cls-1" points="131.467 17.825 124.473 17.825 123.82 18.005 123.82 18.444 132.164 18.444 132.164 18.005 131.467 17.81 131.467 17.825"/><path class="cls-1" d="M350.82319,381.0015l1.2911.0781a5.96587,5.96587,0,0,1,3.1308.9971,5.48164,5.48164,0,0,0-3.82809-1.6153l-1.291-.0771V395l.69719-.0381Z" transform="translate(-209.12789 -378.1045)"/><path class="cls-1" d="M358.95609,381.9683a7.89254,7.89254,0,0,1,2.2265,5.7265c0,4.6758-3.5664,8.2349-9.4043,8.2349h-6.4258l-.6523.1797v.4394h7.7773c5.8379,0,9.4024-3.56,9.4024-8.2358A7.74982,7.74982,0,0,0,358.95609,381.9683Z" transform="translate(-209.12789 -378.1045)"/><polygon class="cls-1" points="165.123 10.945 165.123 11.345 166.492 11.773 166.492 11.373 165.123 10.945"/><path class="cls-1" d="M371.05959,393.8931c-1.1035-1.1758-1.8203-3.0567-1.8203-5.8389,0-5.373,2.09371-7.3613,4.3671-7.3613a3.8397,3.8397,0,0,1,2.3399.8564,4.27948,4.27948,0,0,0-3.0391-1.4756c-2.2734,0-4.36519,1.9893-4.36519,7.3633C368.542,390.77,369.56739,392.811,371.05959,393.8931Z" transform="translate(-209.12789 -378.1045)"/><path class="cls-1" d="M380.415,389.0366l-1.07421.4405v6.5825l-.414.1025-2.2207-1.2656c-.127.0859-.2559.1689-.3887.251v.2119c-.1563.0283-.31839.0469-.4785.0674a7.165,7.165,0,0,1-3.5.8916,7.95373,7.95373,0,0,1-4.9766-1.6993,7.89506,7.89506,0,0,0,5.6758,2.3164,7.45931,7.45931,0,0,0,4.3652-1.4199l2.22071,1.2657.41409-.1036v-6.5825l1.5762-.6455v-.4131Z" transform="translate(-209.12789 -378.1045)"/><path class="cls-1" d="M379.08109,385.2671l-.2852.0225c.1133.2148.2285.4238.3379.6474l.6465-.0527-.2578-6.252h-.543l-.125.125Z" transform="translate(-209.12789 -378.1045)"/><path class="cls-1" d="M391.70409,379.8218l-2.4473-.1074v7.1289h.6973v-6.5118l2.4492.1084a4.18781,4.18781,0,0,1,2.2461.5821A3.5794,3.5794,0,0,0,391.70409,379.8218Z" transform="translate(-209.12789 -378.1045)"/><polygon class="cls-1" points="185.4 13.499 185.4 6.263 184.836 6.263 184.701 6.63 184.701 12.881 184.596 12.881 184.836 13.499 185.4 13.499"/><polygon class="cls-1" points="188.711 6.479 188.418 6.556 188.896 7.231 189.408 7.096 189.031 1.313 188.373 1.313 188.711 6.479"/><path class="cls-1" d="M389.95409,388.564h.916a3.00953,3.00953,0,0,1,1.3926.2656,2.29258,2.29258,0,0,0-2.0918-.8838h-.9141v7.0425l.6973-.0342Z" transform="translate(-209.12789 -378.1045)"/><polygon class="cls-1" points="189.596 12.773 189.332 13.113 188.898 17.825 175.035 17.825 174.451 17.986 174.451 18.444 189.596 18.444 190.107 12.881 189.596 12.773"/><path class="cls-1" d="M239.06739,405.083c.8974-.1855,1.8818-.459,1.9805-.459.1313,0,.1533.1856.0766.5137l-.8423,3.8076h.0215a3.94177,3.94177,0,0,1,2.34131-1.4336c.438,0,.73289.3721.73289,1.0069a4.41155,4.41155,0,0,1-1.6406,3.413,3.11773,3.11773,0,0,1-1.7285.5909c-.5693,0-1.0615-.1963-1.2036-.6123a2.22391,2.22391,0,0,1,.0874-1.1485l.9956-4.9238c.0874-.4375.0766-.4922-.30619-.4922h-.51461Zm1.477,4.1143c-.4048.4697-.4487.6455-.6015,1.5859-.1533.9844.09811,1.2471.53611,1.2471a1.00387,1.00387,0,0,0,.53609-.1416,4.02573,4.02573,0,0,0,1.1812-2.9219c0-.5361-.1421-.7217-.3609-.7217C241.52929,408.2451,240.92769,408.7373,240.54439,409.1973Z" transform="translate(-209.12789 -378.1045)"/><path class="cls-1" d="M244.05759,408.7158c.4815-.5361,1.21441-1.2041,1.6411-1.2041.2954,0,.4048.3946.4922,1.2041.0547.5908.14211,1.7832.1753,2.626h.0215c.38331-.5479.602-.8867.9189-1.4004a2.84591,2.84591,0,0,0,.54741-1.3457,1.50136,1.50136,0,0,0-.10941-.5146.60308.60308,0,0,1,.6343-.5694c.2627,0,.5034.2305.5147.624a2.27515,2.27515,0,0,1-.5694,1.0938c-.6015.832-1.6953,2.4726-2.166,3.1836-.5908.8867-1.0283,1.5322-1.5977,2.2764l-1.2251.3496-.1093-.1973a14.80832,14.80832,0,0,0,2.23191-2.3516,29.62948,29.62948,0,0,0-.30661-3.3261c-.0762-.459-.08739-.7334-.2076-.7334-.1206,0-.36079.165-.7441.5146Z" transform="translate(-209.12789 -378.1045)"/><path class="cls-1" d="M255.41549,403.8721a3.88343,3.88343,0,0,1,2.1626.4453,1.91382,1.91382,0,0,1,.8653,1.665,2.38073,2.38073,0,0,1-1.7432,2.2676c.21.3672.7207,1.2842,1.1401,1.874a14.06854,14.06854,0,0,0,1.0879,1.4551,1.81508,1.81508,0,0,0,.90481.6025l-.05271.3409-.55029-.0264a2.5781,2.5781,0,0,1-2.38581-1.2051c-.4194-.6035-.852-1.4424-1.2319-2.124-.21-.3672-.3672-.4981-.7602-.4981h-.4195v1.7569c0,1.415.105,1.5205,1.1011,1.5986v.3672h-3.6963v-.3672c1.0483-.0781,1.1533-.1836,1.1533-1.5986v-4.5879c0-1.416-.105-1.5205-1.1011-1.5986v-.3672Zm-.9829,4.3515h.4981a1.85789,1.85789,0,0,0,1.2319-.3408,2.06414,2.06414,0,0,0,.708-1.6777,1.68478,1.68478,0,0,0-1.7827-1.835c-.62889,0-.6553.0518-.6553.4717Z" transform="translate(-209.12789 -378.1045)"/><path class="cls-1" d="M269.01949,407.9746a4.36256,4.36256,0,0,1-4.4433,4.6133,4.16554,4.16554,0,0,1-4.28619-4.3115,4.48328,4.48328,0,0,1,4.58789-4.6016A4.12383,4.12383,0,0,1,269.01949,407.9746Zm-7.0254-.1182c0,2.3721,1.04891,4.2071,2.9097,4.2071,1.3633,0,2.4116-1.1397,2.4116-3.6045,0-2.7256-1.0879-4.2598-2.8437-4.2598C263.082,404.1992,261.99409,405.5361,261.99409,407.8564Z" transform="translate(-209.12789 -378.1045)"/><path class="cls-1" d="M273.77489,403.8721a3.44,3.44,0,0,1,2.0186.4326,1.66812,1.66812,0,0,1,.7338,1.4941,2.10379,2.10379,0,0,1-1.86129,1.8741v.0263c1.33689.1572,2.35939.8779,2.35939,2.1885a2.18735,2.18735,0,0,1-1.1797,1.9795,5.13219,5.13219,0,0,1-2.5034.5244h-3.2637v-.3672c1.0225-.0781,1.1275-.1836,1.1275-1.5986v-4.5879c0-1.416-.105-1.5205-1.0489-1.5986v-.3672Zm-1.1274,3.7226h.5244c1.1274,0,1.8349-.5244,1.8349-1.6259a1.49843,1.49843,0,0,0-1.6513-1.5987,1.66118,1.66118,0,0,0-.6031.0654c-.1049.0528-.1049.2754-.1049.5899Zm0,.4717v2.333c0,1.2324.1572,1.4942.9961,1.4678a1.66111,1.66111,0,0,0,1.7568-1.835c0-1.3369-.9702-1.9658-2.3071-1.9658Z" transform="translate(-209.12789 -378.1045)"/><path class="cls-1" d="M284.65189,403.8721c.0258.2099.0786,1.1797.1572,1.9922l-.39309.0263a2.40593,2.40593,0,0,0-.48531-1.1933c-.22269-.2227-.6421-.3008-1.4546-.3008h-.6558c-.498,0-.5239,0-.5239.4717v2.7783h1.1274c1.127,0,1.1533-.0781,1.28421-1.0879h.41939v2.7793H283.708c-.13091-1.0361-.15721-1.0879-1.28421-1.0879h-1.1274v2.1494c0,.7598.0522,1.127.28861,1.2979a2.67166,2.67166,0,0,0,1.25779.1699,2.07536,2.07536,0,0,0,1.5337-.3799,4.17042,4.17042,0,0,0,.6684-1.3242l.3936.0791c-.0528.4453-.3408,1.7822-.4458,2.1494h-6.3965v-.3672c1.1274-.0781,1.2319-.1836,1.2319-1.5986v-4.5879c0-1.416-.1045-1.5205-1.1006-1.5986v-.3672Z" transform="translate(-209.12789 -378.1045)"/><path class="cls-1" d="M290.312,403.8721a3.88549,3.88549,0,0,1,2.16259.4453,1.914,1.914,0,0,1,.8652,1.665,2.38064,2.38064,0,0,1-1.7431,2.2676c.2095.3672.7207,1.2842,1.1401,1.874a14.06854,14.06854,0,0,0,1.0879,1.4551,1.81385,1.81385,0,0,0,.90431.6025l-.05221.3409-.55079-.0264a2.57721,2.57721,0,0,1-2.38531-1.2051c-.4194-.6035-.852-1.4424-1.2319-2.124-.21-.3672-.3672-.4981-.7603-.4981h-.4194v1.7569c0,1.415.1045,1.5205,1.1006,1.5986v.3672h-3.6963v-.3672c1.0488-.0781,1.1538-.1836,1.1538-1.5986v-4.5879c0-1.416-.105-1.5205-1.1011-1.5986v-.3672Zm-.98291,4.3515h.498a1.858,1.858,0,0,0,1.232-.3408,2.06375,2.06375,0,0,0,.7075-1.6777,1.68447,1.68447,0,0,0-1.7822-1.835c-.62939,0-.6553.0518-.6553.4717Z" transform="translate(-209.12789 -378.1045)"/><path class="cls-1" d="M295.14839,405.9424c.0528-.8643.1314-1.7295.1573-2.4111h.23631c.18359.3144.31439.3408.68159.3408h5.3999c.3409,0,.41951-.0791.6294-.3408h.2095c.0264.5507.07861,1.5468.1572,2.3857l-.393.0254a2.29992,2.29992,0,0,0-.4849-1.2188c-.2231-.249-.6421-.3271-1.4551-.3271H299.605v6.0293c0,1.415.105,1.5205,1.311,1.5986v.3672h-4.03711v-.3672c1.1533-.0781,1.2583-.1836,1.2583-1.5986v-6.0293h-.4458c-1.1269,0-1.4678.1572-1.6777.3926a2.91519,2.91519,0,0,0-.47169,1.1533Z" transform="translate(-209.12789 -378.1045)"/><path class="cls-1" d="M310.166,403.8721l2.89649,6.2519,2.7402-6.2519h2.4766v.3672c-1.0615.1045-1.11329.1572-1.0879,1.5986l.1318,4.5879c.0391,1.4678.0782,1.4941,1.1397,1.5986v.3672h-3.6563v-.3672c1.0215-.1045,1.0616-.1308,1.0479-1.5986l-.0518-5.0332H315.75l-2.97561,6.8418h-.3926l-2.8711-6.5801H309.459l-.09181,3.3945a17.71836,17.71836,0,0,0,.0391,2.294c.05271.498.3281.6035,1.1923.6816v.3672h-3.1064v-.3672c.6562-.0517.918-.1836,1.00981-.6816a22.0025,22.0025,0,0,0,.23529-2.4248l.1445-2.7002c.0918-1.7432,0-1.874-1.1279-1.9785v-.3672Z" transform="translate(-209.12789 -378.1045)"/><path class="cls-1" d="M328.42189,407.9746a4.36258,4.36258,0,0,1-4.4434,4.6133,4.16552,4.16552,0,0,1-4.2861-4.3115,4.48236,4.48236,0,0,1,4.5869-4.6016A4.12463,4.12463,0,0,1,328.42189,407.9746Zm-7.0254-.1182c0,2.3721,1.0478,4.2071,2.9092,4.2071,1.3632,0,2.4121-1.1397,2.4121-3.6045,0-2.7256-1.0879-4.2598-2.84479-4.2598C322.48439,404.1992,321.39649,405.5361,321.39649,407.8564Z" transform="translate(-209.12789 -378.1045)"/><path class="cls-1" d="M331.64259,403.8721l5.23041,6.1601h.02639V407.542a20.25721,20.25721,0,0,0-.1181-2.6211c-.0655-.4727-.4327-.6299-1.2715-.6816v-.3672H338.708v.3672c-.65531.0253-.99611.2089-1.06151.6816a20.251,20.251,0,0,0-.1182,2.6211v4.9541h-.6025l-5.4004-6.6055H331.499v2.8311a20.25183,20.25183,0,0,0,.11819,2.6211c.0654.4717.4326.6299,1.2715.6816v.3672h-3.1983v-.3672c.6553-.0264.9961-.2099,1.06161-.6816a20.262,20.262,0,0,0,.11809-2.6211v-2.5694c0-1.5205-.289-1.8349-1.3633-1.913v-.3672Z" transform="translate(-209.12789 -378.1045)"/><path class="cls-1" d="M344.07909,403.8721a5.19383,5.19383,0,0,1,3.66991,1.1533,3.88886,3.88886,0,0,1,1.10159,2.7266c0,3.2236-2.4912,4.6396-5.55759,4.6396h-3.211v-.3672c1.07429-.0781,1.17869-.1836,1.17869-1.5986v-4.5879c0-1.416-.1044-1.5205-1.0742-1.5986v-.3672Zm-1.3496,6.5273c0,1.2061.1309,1.4551,1.1396,1.4551,2.1758,0,3.3038-1.5342,3.3038-3.71,0-2.8047-1.4161-3.7744-3.5127-3.7744a1.99485,1.99485,0,0,0-.8526.1182c-.0781.0654-.0781.3008-.0781.6416Z" transform="translate(-209.12789 -378.1045)"/><path class="cls-1" d="M353.47559,403.7148l.9043,2.4375c.5898,1.5997,1.166,3.2247,1.664,4.5352.4463,1.167.6299,1.2588,1.3897,1.3369v.3672h-3.4473v-.3672l.3672-.0517c.4981-.0791.5244-.21.3672-.7081-.1309-.3935-.4463-1.206-.72069-1.8876h-2.42581c-.1699.3935-.40619,1.1269-.5898,1.6777-.23539.6943-.1309.8652.4463.9307l.3672.039v.3672h-2.9102v-.3672c.8125-.1045.957-.1572,1.415-1.3369l2.6485-6.8154Zm-1.7568,5.0596h2.0839l-1.0224-2.8838h-.0391Z" transform="translate(-209.12789 -378.1045)"/><path class="cls-1" d="M359.81929,403.8721v.3672l-.4189.0654c-.4981.0654-.52439.1572-.3672.668.2617.8125,1.2842,3.4082,2.084,5.4531.5244-1.4024,1.625-4.3779,1.8613-5.086.2754-.8388.1572-.996-.4199-1.0615l-.39259-.039v-.3672h2.97459v.3672c-.8388.1045-.89059.1962-1.4941,1.415-.1309.2627-1.7559,4.1416-2.7656,6.8164h-.5635c-.8916-2.3594-2.1367-5.584-2.6348-6.8945-.4453-1.1797-.6553-1.2588-1.3887-1.3369v-.3672Z" transform="translate(-209.12789 -378.1045)"/><path class="cls-1" d="M370.01459,403.8721v.3672c-.996.0781-1.1015.1826-1.1015,1.5986v4.5879c0,1.415.1055,1.5205,1.1015,1.5986v.3672h-3.6962v-.3672c1.0224-.0781,1.1269-.1836,1.1269-1.5986v-4.5879c0-1.416-.1045-1.5205-1.1269-1.5986v-.3672Z" transform="translate(-209.12789 -378.1045)"/><path class="cls-1" d="M403.09859,394.1104a1.1648,1.1648,0,0,1-1.1631,1.1455,1.13356,1.13356,0,0,1-1.1464-1.1455,1.15475,1.15475,0,1,1,2.3095,0Zm-2.05559,0a.90235.90235,0,1,0,.89249-.9449A.89784.89784,0,0,0,401.043,394.1104Zm1.53119.5947a.442.442,0,0,1-.4297-.1836,1.99293,1.99293,0,0,1-.1738-.2627.11925.11925,0,0,0-.1133-.061h-.0351v.2006c0,.1578.0175.1578.166.1665v.1309h-.6035v-.1309c.166-.0087.1738-.0087.1738-.1665v-.6118c0-.166-.0078-.166-.166-.1753v-.1308h.6133c.20111,0,.4277.0522.4277.3237a.333.333,0,0,1-.2363.3062,1.81321,1.81321,0,0,0,.2802.3935.49366.49366,0,0,0,.1319.0962Zm-.6738-.6558a.32767.32767,0,0,0,.1582-.0444.206.206,0,0,0,.0957-.1831.20113.20113,0,0,0-.2188-.2105c-.0781,0-.1132.0176-.1132.1138v.3242Z" transform="translate(-209.12789 -378.1045)"/><path class="cls-2" d="M228.06639,389.9414h.0537l2.8242-10.3301-1.7754-1.0493v-.4575h5.273v.4575l-1.6411.8877-5.5147,15.9526h-.9414l-4.2773-11.9443h-.0537l-4.708,11.9443h-.9414l-5.0845-16.06-2.1519-.7803v-.4575h8.2588v.4575l-1.8564.6455,2.7705,10.8682h.05421l3.12059-8.3394-.72659-2.394-1.64061-.7803v-.4575h7.6934v.4575l-1.9639.6455Z" transform="translate(-209.12789 -378.1045)"/><path class="cls-2" d="M244.17379,395.6279c-5.6059,0-8.21479-3.9521-8.21479-8.6279,0-4.6499,2.99659-8.6025,8.36959-8.6025,5.6318,0,8.2149,3.9526,8.2149,8.6025C252.54349,391.6758,249.54689,395.6279,244.17379,395.6279Zm-.1294-16.4038c-2.37639,0-3.8491,1.9634-3.8491,7.7759,0,5.8384,1.6792,7.7764,4.26271,7.7764,2.37649,0,3.84909-2.6099,3.84909-7.7764S246.62789,379.2241,244.04439,379.2241Z" transform="translate(-209.12789 -378.1045)"/><path class="cls-2" d="M263.856,395.6279c-5.606,0-8.21491-3.9521-8.21491-8.6279,0-4.6499,2.9966-8.6025,8.3701-8.6025,5.6314,0,8.2149,3.9526,8.2149,8.6025C272.22609,391.6758,269.22949,395.6279,263.856,395.6279Zm-.12891-16.4038c-2.377,0-3.8492,1.9634-3.8492,7.7759,0,5.8384,1.6787,7.7764,4.2622,7.7764,2.3765,0,3.8492-2.6099,3.8492-7.7764S266.31009,379.2241,263.72709,379.2241Z" transform="translate(-209.12789 -378.1045)"/><path class="cls-2" d="M274.626,379.2241v-.4389h7.957c6.04489,0,9.22219,3.5649,9.22219,8.2148,0,4.6758-3.565,8.2412-9.4033,8.2412H274.626v-.4394l2.24749-.6202V379.8442Zm7.414.5425-1.29151-.0776v14.6215l1.8858-.103c3.0224-.1553,4.90871-2.0669,4.90871-7.2075S285.29539,379.9731,282.04,379.7666Z" transform="translate(-209.12789 -378.1045)"/><path class="cls-2" d="M303.68549,395.2412h-8.9638v-.4394l2.2475-.6202V379.8442l-2.2475-.6201v-.4389h8.2925c4.3921,0,6.1225,1.6792,6.1225,3.6167,0,2.0405-1.4472,3.4614-4.6499,4.0297v.1289c3.6685.2842,5.3218,2.1963,5.3218,4.0821C309.80859,393.0708,308.07809,395.2412,303.68549,395.2412Zm-1.4721-9.0161a3.026,3.026,0,0,0,3.0742-3.3584,2.91149,2.91149,0,0,0-3.0742-3.2031l-1.3692-.0259v6.6392Zm-.23239.8784h-1.13681v7.1299a8.44864,8.44864,0,0,0,1.78281.1807c1.91109,0,2.94479-1.3174,2.94479-3.6944A3.34432,3.34432,0,0,0,301.981,387.1035Z" transform="translate(-209.12789 -378.1045)"/><path class="cls-2" d="M322.82619,387.1548v.1294a4.28192,4.28192,0,0,1,3.9004,3.1001,10.64014,10.64014,0,0,0,1.5761,3.3838,3.28836,3.28836,0,0,0,1.4981,1.0337v.4394h-3.126c-2.0146,0-2.63479-.75-3.4873-2.8935l-1.0586-2.6612c-.5684-1.4468-1.42189-1.8598-3.1006-1.8598h-.2842v6.3549l2.2217.6202v.4394h-8.3437v-.4394l2.247-.6202V379.8442l-2.247-.6201v-.4389h9.7392c3.668,0,5.34671,1.9892,5.34671,4.0297C327.708,384.7783,326.28709,386.6123,322.82619,387.1548Zm-2.4805-7.4141-1.6016-.0517v7.2592l1.6016-.0517a3.30284,3.30284,0,0,0,3.4102-3.5391A3.36793,3.36793,0,0,0,320.34569,379.7407Z" transform="translate(-209.12789 -378.1045)"/><path class="cls-2" d="M339.89939,394.8018v.4394h-8.3447v-.4394l2.248-.6202V379.8442l-2.248-.6201v-.4389h8.3447v.4389l-2.2217.6201v14.3374Z" transform="translate(-209.12789 -378.1045)"/><path class="cls-2" d="M343.30759,379.2241v-.4389h7.957c6.045,0,9.2217,3.5649,9.2217,8.2148,0,4.6758-3.5644,8.2412-9.40229,8.2412h-7.77641v-.4394l2.2471-.6202V379.8442Zm7.4141.5425-1.292-.0776v14.6215l1.8867-.103c3.0215-.1553,4.9082-2.0669,4.9082-7.2075S353.97659,379.9731,350.72169,379.7666Z" transform="translate(-209.12789 -378.1045)"/><path class="cls-2" d="M377.74019,384.6235c-1.4716-2.997-3.2548-5.2441-5.5273-5.2441-2.2734,0-4.3662,1.9888-4.3662,7.3623,0,5.4248,2.7119,7.4399,5.73531,7.4399a7.86642,7.86642,0,0,0,1.34279-.1294v-5.27l-2.0664-.6455v-.4136h7.3623v.4136l-1.5762.6455v6.5879l-.4131.1035-2.2216-1.2661a7.45654,7.45654,0,0,1-4.3653,1.4204c-4.4951,0-8.06049-3.4614-8.06049-8.4472a8.80072,8.80072,0,0,1,9.09369-8.7832,9.92217,9.92217,0,0,1,4.02931.8007l.87889-.8784h.542l.2588,6.252Z" transform="translate(-209.12789 -378.1045)"/><path class="cls-2" d="M397.14259,383.8882l-.5108.1347-2.0986-2.9589a3.7191,3.7191,0,0,0-3.5234-1.937l-2.4483-.108v7.1289h.9141c1.5342,0,2.1523-.538,2.7715-2.2055l.3222-.8877h.5655v7.2363h-.5655l-.3222-.834c-.6455-1.6679-1.2373-2.206-2.7715-2.206h-.9141v7.0483l3.3086-.1616a4.04032,4.04032,0,0,0,3.2822-1.7754l2.1788-2.7978.5107.1079-.5107,5.5688h-15.1456v-.458l2.3409-.6455V379.2075l-2.3409-.6455v-.4575h14.5811Z" transform="translate(-209.12789 -378.1045)"/></svg>