<svg xmlns="http://www.w3.org/2000/svg" viewBox="0 0 743.77 411.89">
  <defs>
    <style>
      .cls-1 {
        fill: #f7f5e6;
      }
    </style>
  </defs>
  <g id="Layer_2" data-name="Layer 2">
    <g id="Layer_1-2" data-name="Layer 1">
      <g>
        <g>
          <path class="cls-1" d="M41.22,11.19l12.27,136.4,4.33,74.34h3.25l3.25-74.34L75.87,11.19C76.59,2.89,82.36,0,88.5,0H121c6.14,0,11.91,2.53,12.63,11.19l11.55,136.4,3.25,74.34h2.89L156,147.59l12.27-136.4C168.61,2.89,174.38,0,180.51,0h17c8.66,0,12.63,6.14,11.9,15.16l-26,234.2c-.72,8.66-5.41,11.91-12.63,11.91h-39c-7.22,0-12.27-3.25-13-11.91L109.06,116.2l-2.88-66h-2.89l-2.89,66L90.3,249.36c-.36,8.66-5.41,11.91-12.63,11.91h-39c-7.22,0-11.91-3.25-13-11.91L.08,15.16C-.64,6.14,3.33,0,12,0H29C34.73,0,40.5,2.53,41.22,11.19Z"/>
          <path class="cls-1" d="M273.61,248.64c0,7.94-4.69,12.63-12.63,12.63H240.41c-7.94,0-12.63-4.69-12.63-12.63V12.27C227.78,4.33,232.47,0,240.41,0H261c7.94,0,12.63,4.33,12.63,12.27Z"/>
          <path class="cls-1" d="M394.49,12.27C394.49,4.33,399.18,0,407.12,0h18.05c7.93,0,12.26,4.33,12.26,12.27V248.64c0,7.94-4.33,12.63-12.26,12.63H402.43c-7.58,0-10.47-4-12.63-9.38l-29.95-97.08L344,95.27l-3.25.36L345.41,157v91.66c0,7.94-4.33,12.63-12.27,12.63h-18c-7.94,0-12.63-4.69-12.63-12.63V12.27C302.47,4.33,307.16,0,315.1,0h22.37c7.58,0,10.83,4,12.63,9.38l30,97.08L395.94,166l3.24-.36-4.69-61.35Z"/>
          <path class="cls-1" d="M566.62,0c7.94,0,12.63,4.33,12.63,12.27V22.73c0,7.94-4.69,12.63-12.63,12.63h-54.5V113H552.9c7.94,0,12.63,4.33,12.63,12.27v10.46c0,7.94-4.69,12.64-12.63,12.64H512.12V225.9h54.5c7.94,0,12.63,4.33,12.63,12.27v10.47c0,7.94-4.69,12.63-12.63,12.63H478.93c-7.94,0-12.63-4.69-12.63-12.63V12.27C466.3,4.33,471,0,478.93,0Z"/>
          <path class="cls-1" d="M33.11,290.29c2.34,0,4.84,1,5.67,4l7.17,27,4.84,24.19h1.34l4.67-24.19,7.34-27c.83-3,3.33-4,5.67-4h9c5,0,6.51,4,5.17,8L62,367.69v37.53c0,3.67-2,5.84-5.67,5.84H46.62c-3.67,0-5.67-2.17-5.67-5.84V367.69L18.77,298.3c-1.17-4,.33-8,5.34-8Z"/>
          <path class="cls-1" d="M154.21,315.32V386c0,17.34-9.67,25.85-30.69,25.85S93,403.38,93,386V315.32c0-17.35,9.51-25.86,30.52-25.86S154.21,298,154.21,315.32Zm-40,0V386c0,5.67,2.5,9.5,9.34,9.5S133,391.71,133,386V315.32c0-5.68-2.67-9.51-9.51-9.51S114.18,309.64,114.18,315.32Z"/>
          <path class="cls-1" d="M167.56,296c0-3.67,2.17-5.68,5.84-5.68h9.51c3.67,0,5.84,2,5.84,5.68V386c0,5.67,2.5,9.5,9.33,9.5s9.51-3.83,9.51-9.5V296c0-3.67,2.17-5.68,5.84-5.68h9.51c3.67,0,5.84,2,5.84,5.68V386c0,17.34-9.68,25.85-30.7,25.85s-30.52-8.51-30.52-25.85Z"/>
          <path class="cls-1" d="M289.66,359.18l16.51,43.7c1.17,3,.34,8.18-5.17,8.18H290.83c-3,0-4.84-1.34-5.67-3.84l-16.35-44.7h-5.5v42.7c0,3.67-2.17,5.84-5.84,5.84H248c-3.67,0-5.84-2.17-5.84-5.84V296c0-3.67,2.17-5.68,5.84-5.68h23.69c21.51,0,31.19,8.68,31.19,26.53v19C302.84,347.67,299,355.51,289.66,359.18Zm-18-13c7.34,0,10.17-4.17,10.17-10.34v-19c0-6-2.83-10.18-10.17-10.18h-8.34v39.53Z"/>
          <path class="cls-1" d="M366.72,295.47l5.68,63,2,34.36h1.5l1.5-34.36,5.34-63c.33-3.84,3-5.18,5.84-5.18h15c2.83,0,5.5,1.17,5.83,5.18l5.34,63,1.51,34.36h1.33l2.17-34.36,5.67-63c.16-3.84,2.83-5.18,5.67-5.18H439c4,0,5.84,2.84,5.5,7l-12,108.25c-.33,4-2.5,5.51-5.83,5.51h-18c-3.34,0-5.67-1.5-6-5.51L398.08,344l-1.33-30.52h-1.34L394.08,344l-4.67,61.55c-.17,4-2.5,5.51-5.84,5.51h-18c-3.34,0-5.51-1.5-6-5.51L347.71,297.3c-.33-4.17,1.5-7,5.51-7h7.84C363.72,290.29,366.39,291.46,366.72,295.47Z"/>
          <path class="cls-1" d="M492.83,405.88l-2.5-18.68H469.15l-2.34,18.68c-.5,3.84-3,5.18-5.84,5.18h-9c-4.17,0-6.18-3-5.51-7L463,295.8c.49-4,2.66-5.51,6-5.51h21.68c3.34,0,5.34,1.51,5.84,5.51L513,404.05c.67,4.17-1.33,7-5.5,7h-9C495.83,411.06,493.17,409.72,492.83,405.88Zm-21.68-35h17l-3.34-25.69-4.33-40.36H479l-4.34,40.36Z"/>
          <path class="cls-1" d="M523,290.29a5.47,5.47,0,0,1,5.67,4l7.17,27,4.84,24.19H542l4.67-24.19,7.34-27c.83-3,3.33-4,5.67-4h9c5,0,6.5,4,5.17,8l-22,69.39v37.53c0,3.67-2,5.84-5.67,5.84h-9.67c-3.67,0-5.67-2.17-5.67-5.84V367.69L508.68,298.3c-1.17-4,.34-8,5.34-8Z"/>
        </g>
        <path class="cls-1" d="M619.44,25.81V202c0,22,12.88,43.1,19.19,49.26s6,20.21,6,20.21,1.83,57.06,1.86,58-.17,1-.65,1.25a1.21,1.21,0,0,0-.45,1s.18,11.56.37,13.1,2.5,1.68,4.44,2,10.15.47,10.15.47,8.21-.13,10.15-.47,4.25-.47,4.44-2,.38-13.1.38-13.1a1.23,1.23,0,0,0-.46-1c-.47-.29-.67-.3-.65-1.25s1.87-58,1.87-58-.35-14.05,6-20.21,19.2-27.23,19.2-49.26V25.81S703,1,693.27,1h-65.9C617.64,1,619.44,25.81,619.44,25.81Z"/>
        <path class="cls-1" d="M671.84,359l3.81,39.75c0,7.74-2.31,12.32-10,12.32H655.4c-7.74,0-10.41-4.58-10.41-12.32L648.8,359Z"/>
        <g>
          <path class="cls-1" d="M721.09,3.68V28.39a.78.78,0,0,1-.86.86h-1.56a.78.78,0,0,1-.86-.86V3.68h-4.46a.78.78,0,0,1-.86-.85V1.77a.75.75,0,0,1,.86-.82h12.2a.75.75,0,0,1,.86.82V2.83a.78.78,0,0,1-.86.85Z"/>
          <path class="cls-1" d="M734.86,23.51a.82.82,0,0,1-.9-.79L731.38,6.81h-.2l.28,5.51V28.39a.78.78,0,0,1-.86.86h-1.37a.78.78,0,0,1-.86-.86V1.77a.75.75,0,0,1,.86-.82h2.85c.55,0,.82.23.9.82L735,13l1,6.68h.24l1-6.68,2-11.26c.12-.59.39-.82.94-.82h2.85a.75.75,0,0,1,.86.82V28.39a.78.78,0,0,1-.86.86h-1.37a.78.78,0,0,1-.86-.86V12.32L741,6.81h-.2l-2.58,15.91a.84.84,0,0,1-.9.79Z"/>
        </g>
      </g>
    </g>
  </g>
</svg>
