<svg xmlns="http://www.w3.org/2000/svg" width="32.857" height="28" viewBox="0 0 32.857 28">
  <g id="Style-Guide" transform="translate(0 -0.361)">
    <g id="Elements" transform="translate(0 0.361)">
      <g id="Group-14" transform="translate(0 0)">
        <g id="Group" transform="translate(0 0)">
          <path id="Fill-1" d="M23.3,11.351l-3.144.732.064-6.525,1.064-.248-.056,5.7,2.08-.484ZM18.668,6.677l-2.6,5.533,2.554-.595-.008.829-3.725.867.007-.732,2.6-5.533L15.135,7.6l.008-.855,3.531-.822Zm-5.416,7.015-1.064.248.064-6.525,1.064-.248Zm-3.763.876-.982-2.305-.7.162-.025,2.539L6.751,15.2,6.815,8.68l1.567-.365C9.736,8,10.5,8.4,10.491,9.786a2.327,2.327,0,0,1-1.033,2l1.085,2.536ZM29.627,3.878a3.037,3.037,0,0,1-1.1-.8,4.688,4.688,0,0,0-1.58-1.326,6.063,6.063,0,0,0-1.771-.239,5.729,5.729,0,0,1-1.5-.132c-.327-.133-.787-1.162-1.226-1.008a1.681,1.681,0,0,0-1.253,1.088C20.7,2.5,20.84,2.658,18.878,3.083s-4.006.265-4.851.716-1.744,1.989-4.006,2.069S7,5.735,4.49,7.273A7.092,7.092,0,0,0,1.771,9.854l.865-.2C4.3,9.265,5.222,9.781,5.2,12.3s-.99,3.494-2.625,3.875l-1.412.329.055-5.6A9.326,9.326,0,0,0,.021,14.276,26.6,26.6,0,0,0,.539,19.1c.082.822.382,1.83.355,2.414s-.3,2.1,0,2.414a3.572,3.572,0,0,0,3.324.584c1.226-.637.626-1.035.409-1.22a7.927,7.927,0,0,1-.762-.9.554.554,0,0,1-.027-.61c.081-.159.381-1.247.463-1.433s1.336-1.989,1.444-2.334,1.09-.239,1.308-.053a4.664,4.664,0,0,1,.627,1.91c.028.531.055,1.99.518,2.44s2.314.527,2.643.531c.554.007,1.115-.374.762-.718s-1.2-1.165-1.334-1.351.137-1.008.382-1.326.415-.4.576-.053a19.232,19.232,0,0,1,1.087,3.74c.163,1.273.191,3.05.3,3.369s1.689,1.857,2.534,1.857,3.514-.5,2.234-2.016-1.417-1.008-1.472-2.334a41.619,41.619,0,0,1,.273-4.642c.082-.716.109-.822.272-.451s.491,3.264.736,4.165.375,2.011,1.362,2.387,3.656.83,4.305.345c.4-.3-.245-.769-.9-1.273s-1.716-1.088-1.744-1.8a18.34,18.34,0,0,1,.845-4.217,8.56,8.56,0,0,0,.6-2.838,13.684,13.684,0,0,1,.408-3.236c.152-.084,1.577-.755,2.949-1.533l.024-2.394L23.521,4.79l1.073-.25,1.016,2.772L26.7,4.049l1-.232L26.093,8.273l-.02,2.006c1.557-.992,2.072-1.177,2.4-1.414s1.389-.159,2.288-.69.869-.981.869-.981a2,2,0,0,0,.658-.928c.136-.53.572-.8.572-1.432s-.109-.769-.681-.822A18.839,18.839,0,0,1,29.627,3.878Z" transform="translate(0 -0.361)" fill="#ffffff" fill-rule="evenodd"/>
          <path id="Fill-4" d="M56.216,62.717l-.412.1-.018,1.9.443-.1c.614-.143.865-.449.872-1.178.007-.694-.232-.865-.885-.713" transform="translate(-47.887 -53.761)" fill="#ffffff" fill-rule="evenodd"/>
          <path id="Fill-5" d="M17.443,73.829c.014-1.388-.253-1.87-1.1-1.673l-.381.089-.038,3.9.389-.09c.839-.2,1.117-.818,1.131-2.228" transform="translate(-14.131 -61.625)" fill="#ffffff" fill-rule="evenodd"/>
        </g>
      </g>
    </g>
  </g>
</svg>
