<svg viewBox="0 0 22.001 22" xmlns="http://www.w3.org/2000/svg"><g fill="#fbf6e6"><path d="m15.08 6.061c2.937 0 3.285.011 4.445.064a6.089 6.089 0 0 1 2.043.379 3.643 3.643 0 0 1 2.088 2.088 6.088 6.088 0 0 1 .379 2.043c.053 1.16.064 1.508.064 4.445s-.011 3.285-.064 4.445a6.088 6.088 0 0 1 -.379 2.043 3.643 3.643 0 0 1 -2.088 2.088 6.089 6.089 0 0 1 -2.043.379c-1.16.053-1.508.064-4.445.064s-3.285-.011-4.445-.064a6.089 6.089 0 0 1 -2.043-.379 3.643 3.643 0 0 1 -2.092-2.09 6.088 6.088 0 0 1 -.379-2.043c-.053-1.16-.064-1.508-.064-4.445s.011-3.285.064-4.445a6.088 6.088 0 0 1 .379-2.041 3.643 3.643 0 0 1 2.092-2.092 6.089 6.089 0 0 1 2.043-.379c1.16-.053 1.508-.064 4.445-.064m0-1.982c-2.988 0-3.362.013-4.536.066a8.075 8.075 0 0 0 -2.67.511 5.625 5.625 0 0 0 -3.217 3.222 8.074 8.074 0 0 0 -.511 2.67c-.054 1.173-.066 1.548-.066 4.535s.013 3.362.066 4.535a8.074 8.074 0 0 0 .511 2.67 5.625 5.625 0 0 0 3.217 3.216 8.075 8.075 0 0 0 2.67.511c1.173.054 1.548.066 4.536.066s3.362-.013 4.536-.066a8.075 8.075 0 0 0 2.67-.511 5.625 5.625 0 0 0 3.214-3.216 8.074 8.074 0 0 0 .511-2.67c.054-1.173.066-1.548.066-4.535s-.013-3.362-.066-4.535a8.074 8.074 0 0 0 -.511-2.67 5.625 5.625 0 0 0 -3.217-3.217 8.075 8.075 0 0 0 -2.67-.511c-1.173-.054-1.548-.066-4.536-.066z" transform="translate(-4.079 -4.079)"/><path d="m132.322 126.635a5.686 5.686 0 1 0 5.687 5.686 5.687 5.687 0 0 0 -5.687-5.686zm0 9.378a3.691 3.691 0 1 1 3.692-3.691 3.691 3.691 0 0 1 -3.692 3.691z" transform="translate(-121.321 -121.321)"/><ellipse cx="16.879" cy="5.123" rx="1.311" ry="1.311"/></g></svg>