<?xml version="1.0" encoding="utf-8"?>
<!-- Generator: Adobe Illustrator 25.0.0, SVG Export Plug-In . SVG Version: 6.00 Build 0)  -->
<svg version="1.1" id="logosvg.com" xmlns="http://www.w3.org/2000/svg" xmlns:xlink="http://www.w3.org/1999/xlink" x="0px"
	 y="0px" viewBox="0 0 181 50" style="enable-background:new 0 0 181 50;" xml:space="preserve">
<style type="text/css">
	.st0{fill-rule:evenodd;clip-rule:evenodd;fill:#FFFFFF;}
	.st1{fill:#FFFFFF;}
</style>
<g id="Carrot">
	<path id="Carrot_2_" class="st0" d="M38.6,23.2c1.7,1.7,3,4.4,2.2,6c-2.1,4.3-17.6,12-18.9,10.6c-1.3-1.3,6.3-16.8,10.6-18.9
		C34.2,20.2,36.9,21.5,38.6,23.2L38.6,23.2L38.6,23.2L38.6,23.2z"/>
	<path id="Carrot_1_" class="st0" d="M46.8,21.4L46.8,21.4c-0.3-1-0.9-2-2-2.1c-1.9-0.2-4.9,3.1-4.6,3.9s4.4,2.2,6,1.1
		C46.9,23.6,47,22.4,46.8,21.4L46.8,21.4L46.8,21.4L46.8,21.4z M40.9,12.1c1.4,0.4,2.8,1.3,3,2.8c0.3,2.6-4.3,6.8-5.5,6.5
		c-1.1-0.3-3-6.2-1.5-8.4C37.8,11.9,39.6,11.8,40.9,12.1L40.9,12.1L40.9,12.1L40.9,12.1z"/>
</g>
<path id="text" class="st1" d="M82.6,27.8l-1.4-0.2c-1.3-0.2-2.1-0.6-2.1-1.4c0-0.9,1-1.4,2.5-1.4c1.1,0,1.9,0.4,2.7,0.8l0.1,0.1
	c0.2,0.1,0.4,0.1,0.6,0.1c0.5,0,0.9-0.3,1.2-0.7l0.1-0.2c0.2-0.3,0.2-0.7,0.1-1.1c-0.1-0.4-0.4-0.7-0.7-0.8
	c-1.2-0.6-2.5-1.1-4.2-1.1c-3.5,0-5.8,1.7-5.8,4.5c0,2.2,1.6,3.7,4.7,4.1l1.4,0.2c1.5,0.2,2.2,0.7,2.2,1.3c0,0.7-0.4,1.5-2.6,1.5
	c-1.3,0-2.5-0.3-3.6-1c-0.2-0.1-0.4-0.2-0.7-0.2c-0.5,0-0.9,0.3-1.1,0.6l-0.1,0.1c-0.2,0.3-0.3,0.7-0.1,1.1s0.3,0.7,0.7,0.8
	c1.8,1,3.9,1.4,5,1.4c3.7,0,5.9-1.6,5.9-4.5C87.4,29.5,85.8,28.2,82.6,27.8L82.6,27.8z M125.3,32.7c-0.3-0.3-0.7-0.5-1.1-0.5
	c-0.3,0-0.5,0.1-0.8,0.2c-0.8,0.5-1.6,0.7-2.4,0.7c-2.2,0-3.8-1.7-3.8-4.1s1.6-4.1,3.8-4.1c0.8,0,1.6,0.2,2.3,0.7
	c0.5,0.4,1.3,0.3,1.8-0.2l0.1-0.1c0.3-0.3,0.5-0.8,0.4-1.2c0-0.4-0.3-0.8-0.7-1.1c-1.1-0.7-2.4-1.1-3.9-1.1c-4.2,0-7.2,3-7.2,7.2
	s3,7.2,7.2,7.2c1.5,0,2.8-0.4,3.9-1.1c0.4-0.3,0.6-0.7,0.7-1.1c0.1-0.4-0.1-0.9-0.4-1.2L125.3,32.7L125.3,32.7z M56.8,17
	c-1.1,0-2,0.9-2,2c0,1.1,0.8,2,2,2c1.1,0,2-0.9,2-2C58.8,17.9,57.9,17,56.8,17L56.8,17z M57.3,22h-1.2c-0.6,0-1,0.5-1,1v11.9
	c0,0.6,0.5,1,1,1h1.2c0.6,0,1-0.5,1-1V23C58.4,22.4,57.9,22,57.3,22L57.3,22z M95.4,33.1c-1.3,0-2.8-1-2.8-2.8V25h2.8
	c0.6,0,1-0.5,1-1V23c0-0.6-0.5-1-1-1h-2.8v-3.1c0-0.6-0.5-1-1-1h-1.2c-0.6,0-1,0.5-1,1v11.2c0,3.2,2.5,6.1,5.9,6.1l0,0
	c0.3,0,0.7-0.1,0.9-0.4c0.3-0.3,0.4-0.6,0.4-0.9v-0.8C96.5,33.6,96,33.1,95.4,33.1L95.4,33.1z M67.3,21.9c-4.1,0-6.4,3.3-6.4,6.1
	v6.9c0,0.6,0.5,1,1,1h1.2c0.6,0,1-0.5,1-1v-6.4c0-2.1,1.3-3.5,3.2-3.5c1.9,0,3.2,1.4,3.2,3.5v6.4c0,0.6,0.5,1,1,1h1.2
	c0.6,0,1-0.5,1-1v-7C73.7,25.1,71.4,21.9,67.3,21.9L67.3,21.9z M152,22c-0.4-0.1-1.6-0.1-2.1-0.1c0,0-0.1,0-0.1,0
	c-3.2,0-6.1,2.6-6.1,6.2l0,0v0.1v6.7c0,0.6,0.5,1,1,1h1.2c0.6,0,1-0.5,1-1v-6.7c0-2,1.4-3.2,3.1-3.2c0.3,0,0.7,0,1,0.1
	c0.1,0,0.2,0,0.3,0c0.7,0,1.2-0.4,1.4-1.1c0.1-0.4,0.1-0.6,0.2-0.8c0.1-0.3,0-0.5-0.1-0.7C152.5,22.2,152.3,22.1,152,22L152,22z
	 M160.7,25c0.6,0,1-0.5,1-1V23c0-0.6-0.5-1-1-1h-2.8v-3.1c0-0.6-0.5-1-1-1h-1.2c-0.6,0-1,0.5-1,1v11.2c0,3.2,2.5,6.1,5.9,6.1l0,0
	c0.3,0,0.7-0.1,0.9-0.4c0.3-0.3,0.4-0.6,0.4-0.9v-0.8c0-0.6-0.5-1-1.1-1c-1.3,0-2.8-1-2.8-2.8V25L160.7,25L160.7,25z M138.2,23
	L138.2,23c-1.1-0.7-2.4-1.1-3.9-1.1c0,0,0,0-0.1,0c0,0,0,0-0.1,0c-1.4,0-2.8,0.4-3.9,1.1l0,0c-2,1.2-3.2,3.4-3.2,6.1
	c0,2.8,1.3,5.1,3.4,6.3c1,0.6,2.2,0.9,3.4,0.9c2.3,0,3.7-1.3,4.2-1.9v0.5c0,0.6,0.5,1,1,1h1.2c0.6,0,1-0.5,1-1v-5.8
	C141.4,26.4,140.2,24.2,138.2,23L138.2,23z M135.6,33c-0.4,0.1-0.8,0.2-1.1,0.2c0,0-0.1,0-0.1,0c0,0,0,0-0.1,0c0,0,0,0-0.1,0
	c0,0-0.1,0-0.1,0c-0.4,0-0.8-0.1-1.1-0.2c-1.5-0.5-2.5-2-2.5-3.9c0-2.2,1.4-3.9,3.4-4.1h0c0,0,0.1,0,0.1,0c0,0,0,0,0.1,0
	c0,0,0.1,0,0.1,0h0h0c0,0,0.1,0,0.1,0c0,0,0,0,0.1,0c0,0,0.1,0,0.1,0h0c2,0.2,3.4,1.9,3.4,4.1C138.1,31,137.1,32.5,135.6,33
	L135.6,33z M108.9,23L108.9,23c-1.1-0.7-2.4-1.1-3.9-1.1c0,0,0,0-0.1,0c0,0,0,0-0.1,0c-1.4,0-2.8,0.4-3.9,1.1l0,0
	c-2,1.2-3.2,3.4-3.2,6.1c0,2.8,1.3,5.1,3.4,6.3c1,0.6,2.2,0.9,3.4,0.9c2.3,0,3.7-1.3,4.2-1.9v0.5c0,0.6,0.5,1,1,1h1.2
	c0.6,0,1-0.5,1-1v-5.8C112.1,26.4,110.9,24.2,108.9,23L108.9,23z M106.3,33c-0.4,0.1-0.8,0.2-1.1,0.2c0,0-0.1,0-0.1,0c0,0,0,0-0.1,0
	c0,0,0,0-0.1,0c0,0-0.1,0-0.1,0c-0.4,0-0.8-0.1-1.1-0.2c-1.5-0.5-2.5-2-2.5-3.9c0-2.2,1.4-3.9,3.4-4.1h0c0,0,0.1,0,0.1,0
	c0,0,0,0,0.1,0c0,0,0.1,0,0.1,0h0h0c0,0,0.1,0,0.1,0c0,0,0,0,0.1,0c0,0,0.1,0,0.1,0h0c2,0.2,3.4,1.9,3.4,4.1
	C108.8,31,107.8,32.5,106.3,33L106.3,33z"/>
</svg>
