<svg viewBox="0 0 26.4 18.6" xmlns="http://www.w3.org/2000/svg"><path d="m33.849 36.9a3.317 3.317 0 0 0 -2.334-2.349c-2.059-.551-10.315-.551-10.315-.551s-8.256 0-10.314.555a3.317 3.317 0 0 0 -2.334 2.345 34.8 34.8 0 0 0 -.552 6.4 34.8 34.8 0 0 0 .552 6.4 3.317 3.317 0 0 0 2.334 2.349c2.059.551 10.314.551 10.314.551s8.256 0 10.314-.555a3.317 3.317 0 0 0 2.335-2.345 34.8 34.8 0 0 0 .552-6.4 34.8 34.8 0 0 0 -.552-6.4zm-15.349 10.326v-7.851l6.9 3.925z" fill="#fbf6e6" transform="translate(-8 -34)"/></svg>